<?xml version="1.0" encoding="utf-8"?>
<svg xmlns="http://www.w3.org/2000/svg" xmlns:xlink="http://www.w3.org/1999/xlink" width="600" height="400" viewBox="0 0 2400 1600">
<defs>
  <clipPath id="clip880">
    <rect x="0" y="0" width="2400" height="1600"/>
  </clipPath>
</defs>
<path clip-path="url(#clip880)" d="M0 1600 L2400 1600 L2400 0 L0 0  Z" fill="#ffffff" fill-rule="evenodd" fill-opacity="1"/>
<defs>
  <clipPath id="clip881">
    <rect x="112" y="47" width="2242" height="1377"/>
  </clipPath>
</defs>
<path clip-path="url(#clip880)" d="M112.177 1423.18 L2352.76 1423.18 L2352.76 47.2441 L112.177 47.2441  Z" fill="#ffffff" fill-rule="evenodd" fill-opacity="1"/>
<polyline clip-path="url(#clip881)" style="stroke:#000000; stroke-linecap:round; stroke-linejoin:round; stroke-width:2; stroke-opacity:0.1; fill:none" points="388.806,1423.18 388.806,47.2441 "/>
<polyline clip-path="url(#clip881)" style="stroke:#000000; stroke-linecap:round; stroke-linejoin:round; stroke-width:2; stroke-opacity:0.1; fill:none" points="772.288,1423.18 772.288,47.2441 "/>
<polyline clip-path="url(#clip881)" style="stroke:#000000; stroke-linecap:round; stroke-linejoin:round; stroke-width:2; stroke-opacity:0.1; fill:none" points="1155.77,1423.18 1155.77,47.2441 "/>
<polyline clip-path="url(#clip881)" style="stroke:#000000; stroke-linecap:round; stroke-linejoin:round; stroke-width:2; stroke-opacity:0.1; fill:none" points="1539.25,1423.18 1539.25,47.2441 "/>
<polyline clip-path="url(#clip881)" style="stroke:#000000; stroke-linecap:round; stroke-linejoin:round; stroke-width:2; stroke-opacity:0.1; fill:none" points="1922.73,1423.18 1922.73,47.2441 "/>
<polyline clip-path="url(#clip881)" style="stroke:#000000; stroke-linecap:round; stroke-linejoin:round; stroke-width:2; stroke-opacity:0.1; fill:none" points="2306.22,1423.18 2306.22,47.2441 "/>
<polyline clip-path="url(#clip881)" style="stroke:#000000; stroke-linecap:round; stroke-linejoin:round; stroke-width:2; stroke-opacity:0.1; fill:none" points="112.177,1423.18 2352.76,1423.18 "/>
<polyline clip-path="url(#clip881)" style="stroke:#000000; stroke-linecap:round; stroke-linejoin:round; stroke-width:2; stroke-opacity:0.1; fill:none" points="112.177,1191.44 2352.76,1191.44 "/>
<polyline clip-path="url(#clip881)" style="stroke:#000000; stroke-linecap:round; stroke-linejoin:round; stroke-width:2; stroke-opacity:0.1; fill:none" points="112.177,959.707 2352.76,959.707 "/>
<polyline clip-path="url(#clip881)" style="stroke:#000000; stroke-linecap:round; stroke-linejoin:round; stroke-width:2; stroke-opacity:0.1; fill:none" points="112.177,727.97 2352.76,727.97 "/>
<polyline clip-path="url(#clip881)" style="stroke:#000000; stroke-linecap:round; stroke-linejoin:round; stroke-width:2; stroke-opacity:0.1; fill:none" points="112.177,496.234 2352.76,496.234 "/>
<polyline clip-path="url(#clip881)" style="stroke:#000000; stroke-linecap:round; stroke-linejoin:round; stroke-width:2; stroke-opacity:0.1; fill:none" points="112.177,264.497 2352.76,264.497 "/>
<polyline clip-path="url(#clip880)" style="stroke:#000000; stroke-linecap:round; stroke-linejoin:round; stroke-width:4; stroke-opacity:1; fill:none" points="112.177,1423.18 2352.76,1423.18 "/>
<polyline clip-path="url(#clip880)" style="stroke:#000000; stroke-linecap:round; stroke-linejoin:round; stroke-width:4; stroke-opacity:1; fill:none" points="388.806,1423.18 388.806,1404.28 "/>
<polyline clip-path="url(#clip880)" style="stroke:#000000; stroke-linecap:round; stroke-linejoin:round; stroke-width:4; stroke-opacity:1; fill:none" points="772.288,1423.18 772.288,1404.28 "/>
<polyline clip-path="url(#clip880)" style="stroke:#000000; stroke-linecap:round; stroke-linejoin:round; stroke-width:4; stroke-opacity:1; fill:none" points="1155.77,1423.18 1155.77,1404.28 "/>
<polyline clip-path="url(#clip880)" style="stroke:#000000; stroke-linecap:round; stroke-linejoin:round; stroke-width:4; stroke-opacity:1; fill:none" points="1539.25,1423.18 1539.25,1404.28 "/>
<polyline clip-path="url(#clip880)" style="stroke:#000000; stroke-linecap:round; stroke-linejoin:round; stroke-width:4; stroke-opacity:1; fill:none" points="1922.73,1423.18 1922.73,1404.28 "/>
<polyline clip-path="url(#clip880)" style="stroke:#000000; stroke-linecap:round; stroke-linejoin:round; stroke-width:4; stroke-opacity:1; fill:none" points="2306.22,1423.18 2306.22,1404.28 "/>
<path clip-path="url(#clip880)" d="M356.41 1481.64 L364.049 1481.64 L364.049 1455.28 L355.739 1456.95 L355.739 1452.69 L364.003 1451.02 L368.679 1451.02 L368.679 1481.64 L376.317 1481.64 L376.317 1485.58 L356.41 1485.58 L356.41 1481.64 Z" fill="#000000" fill-rule="nonzero" fill-opacity="1" /><path clip-path="url(#clip880)" d="M385.762 1479.7 L390.646 1479.7 L390.646 1485.58 L385.762 1485.58 L385.762 1479.7 Z" fill="#000000" fill-rule="nonzero" fill-opacity="1" /><path clip-path="url(#clip880)" d="M399.651 1451.02 L421.873 1451.02 L421.873 1453.01 L409.327 1485.58 L404.442 1485.58 L416.248 1454.96 L399.651 1454.96 L399.651 1451.02 Z" fill="#000000" fill-rule="nonzero" fill-opacity="1" /><path clip-path="url(#clip880)" d="M739.487 1481.64 L747.126 1481.64 L747.126 1455.28 L738.816 1456.95 L738.816 1452.69 L747.08 1451.02 L751.756 1451.02 L751.756 1481.64 L759.395 1481.64 L759.395 1485.58 L739.487 1485.58 L739.487 1481.64 Z" fill="#000000" fill-rule="nonzero" fill-opacity="1" /><path clip-path="url(#clip880)" d="M768.839 1479.7 L773.723 1479.7 L773.723 1485.58 L768.839 1485.58 L768.839 1479.7 Z" fill="#000000" fill-rule="nonzero" fill-opacity="1" /><path clip-path="url(#clip880)" d="M793.908 1469.17 Q790.575 1469.17 788.654 1470.95 Q786.755 1472.73 786.755 1475.86 Q786.755 1478.98 788.654 1480.77 Q790.575 1482.55 793.908 1482.55 Q797.242 1482.55 799.163 1480.77 Q801.084 1478.96 801.084 1475.86 Q801.084 1472.73 799.163 1470.95 Q797.265 1469.17 793.908 1469.17 M789.232 1467.18 Q786.223 1466.44 784.533 1464.38 Q782.867 1462.32 782.867 1459.35 Q782.867 1455.21 785.806 1452.8 Q788.769 1450.39 793.908 1450.39 Q799.07 1450.39 802.01 1452.8 Q804.95 1455.21 804.95 1459.35 Q804.95 1462.32 803.26 1464.38 Q801.593 1466.44 798.607 1467.18 Q801.987 1467.96 803.862 1470.26 Q805.76 1472.55 805.76 1475.86 Q805.76 1480.88 802.681 1483.57 Q799.626 1486.25 793.908 1486.25 Q788.191 1486.25 785.112 1483.57 Q782.056 1480.88 782.056 1475.86 Q782.056 1472.55 783.955 1470.26 Q785.853 1467.96 789.232 1467.18 M787.519 1459.79 Q787.519 1462.48 789.186 1463.98 Q790.876 1465.49 793.908 1465.49 Q796.917 1465.49 798.607 1463.98 Q800.32 1462.48 800.32 1459.79 Q800.32 1457.11 798.607 1455.6 Q796.917 1454.1 793.908 1454.1 Q790.876 1454.1 789.186 1455.6 Q787.519 1457.11 787.519 1459.79 Z" fill="#000000" fill-rule="nonzero" fill-opacity="1" /><path clip-path="url(#clip880)" d="M1123.02 1481.64 L1130.65 1481.64 L1130.65 1455.28 L1122.34 1456.95 L1122.34 1452.69 L1130.61 1451.02 L1135.28 1451.02 L1135.28 1481.64 L1142.92 1481.64 L1142.92 1485.58 L1123.02 1485.58 L1123.02 1481.64 Z" fill="#000000" fill-rule="nonzero" fill-opacity="1" /><path clip-path="url(#clip880)" d="M1152.37 1479.7 L1157.25 1479.7 L1157.25 1485.58 L1152.37 1485.58 L1152.37 1479.7 Z" fill="#000000" fill-rule="nonzero" fill-opacity="1" /><path clip-path="url(#clip880)" d="M1167.58 1484.86 L1167.58 1480.6 Q1169.33 1481.44 1171.14 1481.88 Q1172.95 1482.32 1174.68 1482.32 Q1179.31 1482.32 1181.74 1479.21 Q1184.2 1476.09 1184.54 1469.75 Q1183.2 1471.74 1181.14 1472.8 Q1179.08 1473.87 1176.58 1473.87 Q1171.4 1473.87 1168.36 1470.74 Q1165.35 1467.59 1165.35 1462.15 Q1165.35 1456.83 1168.5 1453.61 Q1171.65 1450.39 1176.88 1450.39 Q1182.88 1450.39 1186.02 1455 Q1189.2 1459.58 1189.2 1468.33 Q1189.2 1476.51 1185.31 1481.39 Q1181.44 1486.25 1174.89 1486.25 Q1173.13 1486.25 1171.33 1485.9 Q1169.52 1485.56 1167.58 1484.86 M1176.88 1470.21 Q1180.03 1470.21 1181.86 1468.06 Q1183.71 1465.9 1183.71 1462.15 Q1183.71 1458.43 1181.86 1456.27 Q1180.03 1454.1 1176.88 1454.1 Q1173.73 1454.1 1171.88 1456.27 Q1170.05 1458.43 1170.05 1462.15 Q1170.05 1465.9 1171.88 1468.06 Q1173.73 1470.21 1176.88 1470.21 Z" fill="#000000" fill-rule="nonzero" fill-opacity="1" /><path clip-path="url(#clip880)" d="M1510.49 1481.64 L1526.81 1481.64 L1526.81 1485.58 L1504.87 1485.58 L1504.87 1481.64 Q1507.53 1478.89 1512.11 1474.26 Q1516.72 1469.61 1517.9 1468.27 Q1520.14 1465.74 1521.02 1464.01 Q1521.93 1462.25 1521.93 1460.56 Q1521.93 1457.8 1519.98 1456.07 Q1518.06 1454.33 1514.96 1454.33 Q1512.76 1454.33 1510.31 1455.09 Q1507.88 1455.86 1505.1 1457.41 L1505.1 1452.69 Q1507.92 1451.55 1510.38 1450.97 Q1512.83 1450.39 1514.87 1450.39 Q1520.24 1450.39 1523.43 1453.08 Q1526.63 1455.77 1526.63 1460.26 Q1526.63 1462.39 1525.81 1464.31 Q1525.03 1466.2 1522.92 1468.8 Q1522.34 1469.47 1519.24 1472.69 Q1516.14 1475.88 1510.49 1481.64 Z" fill="#000000" fill-rule="nonzero" fill-opacity="1" /><path clip-path="url(#clip880)" d="M1536.62 1479.7 L1541.51 1479.7 L1541.51 1485.58 L1536.62 1485.58 L1536.62 1479.7 Z" fill="#000000" fill-rule="nonzero" fill-opacity="1" /><path clip-path="url(#clip880)" d="M1561.69 1454.1 Q1558.08 1454.1 1556.25 1457.66 Q1554.45 1461.2 1554.45 1468.33 Q1554.45 1475.44 1556.25 1479.01 Q1558.08 1482.55 1561.69 1482.55 Q1565.33 1482.55 1567.13 1479.01 Q1568.96 1475.44 1568.96 1468.33 Q1568.96 1461.2 1567.13 1457.66 Q1565.33 1454.1 1561.69 1454.1 M1561.69 1450.39 Q1567.5 1450.39 1570.56 1455 Q1573.64 1459.58 1573.64 1468.33 Q1573.64 1477.06 1570.56 1481.67 Q1567.5 1486.25 1561.69 1486.25 Q1555.88 1486.25 1552.81 1481.67 Q1549.75 1477.06 1549.75 1468.33 Q1549.75 1459.58 1552.81 1455 Q1555.88 1450.39 1561.69 1450.39 Z" fill="#000000" fill-rule="nonzero" fill-opacity="1" /><path clip-path="url(#clip880)" d="M1894.59 1481.64 L1910.91 1481.64 L1910.91 1485.58 L1888.96 1485.58 L1888.96 1481.64 Q1891.62 1478.89 1896.21 1474.26 Q1900.81 1469.61 1901.99 1468.27 Q1904.24 1465.74 1905.12 1464.01 Q1906.02 1462.25 1906.02 1460.56 Q1906.02 1457.8 1904.08 1456.07 Q1902.16 1454.33 1899.05 1454.33 Q1896.85 1454.33 1894.4 1455.09 Q1891.97 1455.86 1889.19 1457.41 L1889.19 1452.69 Q1892.02 1451.55 1894.47 1450.97 Q1896.92 1450.39 1898.96 1450.39 Q1904.33 1450.39 1907.53 1453.08 Q1910.72 1455.77 1910.72 1460.26 Q1910.72 1462.39 1909.91 1464.31 Q1909.12 1466.2 1907.02 1468.8 Q1906.44 1469.47 1903.34 1472.69 Q1900.23 1475.88 1894.59 1481.64 Z" fill="#000000" fill-rule="nonzero" fill-opacity="1" /><path clip-path="url(#clip880)" d="M1920.72 1479.7 L1925.6 1479.7 L1925.6 1485.58 L1920.72 1485.58 L1920.72 1479.7 Z" fill="#000000" fill-rule="nonzero" fill-opacity="1" /><path clip-path="url(#clip880)" d="M1936.6 1481.64 L1944.24 1481.64 L1944.24 1455.28 L1935.93 1456.95 L1935.93 1452.69 L1944.19 1451.02 L1948.87 1451.02 L1948.87 1481.64 L1956.51 1481.64 L1956.51 1485.58 L1936.6 1485.58 L1936.6 1481.64 Z" fill="#000000" fill-rule="nonzero" fill-opacity="1" /><path clip-path="url(#clip880)" d="M2278.25 1481.64 L2294.57 1481.64 L2294.57 1485.58 L2272.63 1485.58 L2272.63 1481.64 Q2275.29 1478.89 2279.87 1474.26 Q2284.48 1469.61 2285.66 1468.27 Q2287.91 1465.74 2288.79 1464.01 Q2289.69 1462.25 2289.69 1460.56 Q2289.69 1457.8 2287.74 1456.07 Q2285.82 1454.33 2282.72 1454.33 Q2280.52 1454.33 2278.07 1455.09 Q2275.64 1455.86 2272.86 1457.41 L2272.86 1452.69 Q2275.68 1451.55 2278.14 1450.97 Q2280.59 1450.39 2282.63 1450.39 Q2288 1450.39 2291.19 1453.08 Q2294.39 1455.77 2294.39 1460.26 Q2294.39 1462.39 2293.58 1464.31 Q2292.79 1466.2 2290.68 1468.8 Q2290.11 1469.47 2287 1472.69 Q2283.9 1475.88 2278.25 1481.64 Z" fill="#000000" fill-rule="nonzero" fill-opacity="1" /><path clip-path="url(#clip880)" d="M2304.39 1479.7 L2309.27 1479.7 L2309.27 1485.58 L2304.39 1485.58 L2304.39 1479.7 Z" fill="#000000" fill-rule="nonzero" fill-opacity="1" /><path clip-path="url(#clip880)" d="M2323.48 1481.64 L2339.8 1481.64 L2339.8 1485.58 L2317.86 1485.58 L2317.86 1481.64 Q2320.52 1478.89 2325.11 1474.26 Q2329.71 1469.61 2330.89 1468.27 Q2333.14 1465.74 2334.02 1464.01 Q2334.92 1462.25 2334.92 1460.56 Q2334.92 1457.8 2332.98 1456.07 Q2331.05 1454.33 2327.95 1454.33 Q2325.75 1454.33 2323.3 1455.09 Q2320.87 1455.86 2318.09 1457.41 L2318.09 1452.69 Q2320.92 1451.55 2323.37 1450.97 Q2325.82 1450.39 2327.86 1450.39 Q2333.23 1450.39 2336.42 1453.08 Q2339.62 1455.77 2339.62 1460.26 Q2339.62 1462.39 2338.81 1464.31 Q2338.02 1466.2 2335.92 1468.8 Q2335.34 1469.47 2332.23 1472.69 Q2329.13 1475.88 2323.48 1481.64 Z" fill="#000000" fill-rule="nonzero" fill-opacity="1" /><path clip-path="url(#clip880)" d="M1242.33 1550.25 Q1242.33 1543.79 1239.66 1540.13 Q1237.02 1536.44 1232.37 1536.44 Q1227.72 1536.44 1225.05 1540.13 Q1222.41 1543.79 1222.41 1550.25 Q1222.41 1556.71 1225.05 1560.4 Q1227.72 1564.07 1232.37 1564.07 Q1237.02 1564.07 1239.66 1560.4 Q1242.33 1556.71 1242.33 1550.25 M1222.41 1537.81 Q1224.25 1534.62 1227.06 1533.1 Q1229.89 1531.54 1233.8 1531.54 Q1240.3 1531.54 1244.34 1536.69 Q1248.41 1541.85 1248.41 1550.25 Q1248.41 1558.65 1244.34 1563.81 Q1240.3 1568.97 1233.8 1568.97 Q1229.89 1568.97 1227.06 1567.44 Q1224.25 1565.88 1222.41 1562.7 L1222.41 1568.04 L1216.52 1568.04 L1216.52 1518.52 L1222.41 1518.52 L1222.41 1537.81 Z" fill="#000000" fill-rule="nonzero" fill-opacity="1" /><polyline clip-path="url(#clip880)" style="stroke:#000000; stroke-linecap:round; stroke-linejoin:round; stroke-width:4; stroke-opacity:1; fill:none" points="112.177,1423.18 112.177,47.2441 "/>
<polyline clip-path="url(#clip880)" style="stroke:#000000; stroke-linecap:round; stroke-linejoin:round; stroke-width:4; stroke-opacity:1; fill:none" points="112.177,1423.18 131.075,1423.18 "/>
<polyline clip-path="url(#clip880)" style="stroke:#000000; stroke-linecap:round; stroke-linejoin:round; stroke-width:4; stroke-opacity:1; fill:none" points="112.177,1191.44 131.075,1191.44 "/>
<polyline clip-path="url(#clip880)" style="stroke:#000000; stroke-linecap:round; stroke-linejoin:round; stroke-width:4; stroke-opacity:1; fill:none" points="112.177,959.707 131.075,959.707 "/>
<polyline clip-path="url(#clip880)" style="stroke:#000000; stroke-linecap:round; stroke-linejoin:round; stroke-width:4; stroke-opacity:1; fill:none" points="112.177,727.97 131.075,727.97 "/>
<polyline clip-path="url(#clip880)" style="stroke:#000000; stroke-linecap:round; stroke-linejoin:round; stroke-width:4; stroke-opacity:1; fill:none" points="112.177,496.234 131.075,496.234 "/>
<polyline clip-path="url(#clip880)" style="stroke:#000000; stroke-linecap:round; stroke-linejoin:round; stroke-width:4; stroke-opacity:1; fill:none" points="112.177,264.497 131.075,264.497 "/>
<path clip-path="url(#clip880)" d="M64.2328 1408.98 Q60.6217 1408.98 58.793 1412.54 Q56.9875 1416.08 56.9875 1423.21 Q56.9875 1430.32 58.793 1433.89 Q60.6217 1437.43 64.2328 1437.43 Q67.867 1437.43 69.6726 1433.89 Q71.5013 1430.32 71.5013 1423.21 Q71.5013 1416.08 69.6726 1412.54 Q67.867 1408.98 64.2328 1408.98 M64.2328 1405.27 Q70.0429 1405.27 73.0985 1409.88 Q76.1772 1414.46 76.1772 1423.21 Q76.1772 1431.94 73.0985 1436.55 Q70.0429 1441.13 64.2328 1441.13 Q58.4226 1441.13 55.344 1436.55 Q52.2884 1431.94 52.2884 1423.21 Q52.2884 1414.46 55.344 1409.88 Q58.4226 1405.27 64.2328 1405.27 Z" fill="#000000" fill-rule="nonzero" fill-opacity="1" /><path clip-path="url(#clip880)" d="M56.2699 1204.79 L63.9087 1204.79 L63.9087 1178.42 L55.5986 1180.09 L55.5986 1175.83 L63.8624 1174.16 L68.5383 1174.16 L68.5383 1204.79 L76.1772 1204.79 L76.1772 1208.72 L56.2699 1208.72 L56.2699 1204.79 Z" fill="#000000" fill-rule="nonzero" fill-opacity="1" /><path clip-path="url(#clip880)" d="M59.8578 973.052 L76.1772 973.052 L76.1772 976.987 L54.2328 976.987 L54.2328 973.052 Q56.8949 970.297 61.4782 965.667 Q66.0846 961.015 67.2652 959.672 Q69.5105 957.149 70.3902 955.413 Q71.2929 953.654 71.2929 951.964 Q71.2929 949.209 69.3485 947.473 Q67.4272 945.737 64.3254 945.737 Q62.1263 945.737 59.6726 946.501 Q57.2421 947.265 54.4643 948.816 L54.4643 944.093 Q57.2884 942.959 59.7421 942.38 Q62.1958 941.802 64.2328 941.802 Q69.6031 941.802 72.7976 944.487 Q75.992 947.172 75.992 951.663 Q75.992 953.792 75.1818 955.714 Q74.3948 957.612 72.2883 960.204 Q71.7096 960.876 68.6078 964.093 Q65.5059 967.288 59.8578 973.052 Z" fill="#000000" fill-rule="nonzero" fill-opacity="1" /><path clip-path="url(#clip880)" d="M69.0476 726.616 Q72.404 727.334 74.279 729.602 Q76.1772 731.871 76.1772 735.204 Q76.1772 740.32 72.6587 743.121 Q69.1402 745.921 62.6587 745.921 Q60.4828 745.921 58.168 745.482 Q55.8764 745.065 53.4227 744.209 L53.4227 739.695 Q55.3671 740.829 57.6819 741.408 Q59.9967 741.986 62.5198 741.986 Q66.918 741.986 69.2096 740.25 Q71.5244 738.514 71.5244 735.204 Q71.5244 732.148 69.3717 730.435 Q67.242 728.699 63.4226 728.699 L59.3949 728.699 L59.3949 724.857 L63.6078 724.857 Q67.0569 724.857 68.8855 723.491 Q70.7142 722.102 70.7142 719.51 Q70.7142 716.848 68.8161 715.436 Q66.9411 714 63.4226 714 Q61.5013 714 59.3023 714.417 Q57.1032 714.834 54.4643 715.713 L54.4643 711.547 Q57.1264 710.806 59.4412 710.436 Q61.7791 710.065 63.8393 710.065 Q69.1633 710.065 72.2652 712.496 Q75.367 714.903 75.367 719.023 Q75.367 721.894 73.7235 723.885 Q72.08 725.852 69.0476 726.616 Z" fill="#000000" fill-rule="nonzero" fill-opacity="1" /><path clip-path="url(#clip880)" d="M66.5939 483.028 L54.7884 501.477 L66.5939 501.477 L66.5939 483.028 M65.367 478.954 L71.2466 478.954 L71.2466 501.477 L76.1772 501.477 L76.1772 505.366 L71.2466 505.366 L71.2466 513.514 L66.5939 513.514 L66.5939 505.366 L50.9921 505.366 L50.9921 500.852 L65.367 478.954 Z" fill="#000000" fill-rule="nonzero" fill-opacity="1" /><path clip-path="url(#clip880)" d="M55.2745 247.217 L73.6309 247.217 L73.6309 251.152 L59.5569 251.152 L59.5569 259.624 Q60.5754 259.277 61.5939 259.115 Q62.6124 258.93 63.6309 258.93 Q69.418 258.93 72.7976 262.101 Q76.1772 265.273 76.1772 270.689 Q76.1772 276.268 72.705 279.37 Q69.2328 282.448 62.9134 282.448 Q60.7374 282.448 58.4689 282.078 Q56.2236 281.708 53.8162 280.967 L53.8162 276.268 Q55.8995 277.402 58.1217 277.958 Q60.3439 278.513 62.8208 278.513 Q66.8254 278.513 69.1633 276.407 Q71.5013 274.3 71.5013 270.689 Q71.5013 267.078 69.1633 264.972 Q66.8254 262.865 62.8208 262.865 Q60.9458 262.865 59.0708 263.282 Q57.2189 263.699 55.2745 264.578 L55.2745 247.217 Z" fill="#000000" fill-rule="nonzero" fill-opacity="1" /><path clip-path="url(#clip881)" d="M235.413 1421.73 L235.413 1423.18 L312.109 1423.18 L312.109 1421.73 L235.413 1421.73 L235.413 1421.73  Z" fill="#009af9" fill-rule="evenodd" fill-opacity="1"/>
<polyline clip-path="url(#clip881)" style="stroke:#000000; stroke-linecap:round; stroke-linejoin:round; stroke-width:4; stroke-opacity:1; fill:none" points="235.413,1421.73 235.413,1423.18 312.109,1423.18 312.109,1421.73 235.413,1421.73 "/>
<path clip-path="url(#clip881)" d="M312.109 1421.73 L312.109 1423.18 L388.806 1423.18 L388.806 1421.73 L312.109 1421.73 L312.109 1421.73  Z" fill="#009af9" fill-rule="evenodd" fill-opacity="1"/>
<polyline clip-path="url(#clip881)" style="stroke:#000000; stroke-linecap:round; stroke-linejoin:round; stroke-width:4; stroke-opacity:1; fill:none" points="312.109,1421.73 312.109,1423.18 388.806,1423.18 388.806,1421.73 312.109,1421.73 "/>
<path clip-path="url(#clip881)" d="M388.806 1418.83 L388.806 1423.18 L465.502 1423.18 L465.502 1418.83 L388.806 1418.83 L388.806 1418.83  Z" fill="#009af9" fill-rule="evenodd" fill-opacity="1"/>
<polyline clip-path="url(#clip881)" style="stroke:#000000; stroke-linecap:round; stroke-linejoin:round; stroke-width:4; stroke-opacity:1; fill:none" points="388.806,1418.83 388.806,1423.18 465.502,1423.18 465.502,1418.83 388.806,1418.83 "/>
<path clip-path="url(#clip881)" d="M465.502 1405.8 L465.502 1423.18 L542.199 1423.18 L542.199 1405.8 L465.502 1405.8 L465.502 1405.8  Z" fill="#009af9" fill-rule="evenodd" fill-opacity="1"/>
<polyline clip-path="url(#clip881)" style="stroke:#000000; stroke-linecap:round; stroke-linejoin:round; stroke-width:4; stroke-opacity:1; fill:none" points="465.502,1405.8 465.502,1423.18 542.199,1423.18 542.199,1405.8 465.502,1405.8 "/>
<path clip-path="url(#clip881)" d="M542.199 1398.56 L542.199 1423.18 L618.895 1423.18 L618.895 1398.56 L542.199 1398.56 L542.199 1398.56  Z" fill="#009af9" fill-rule="evenodd" fill-opacity="1"/>
<polyline clip-path="url(#clip881)" style="stroke:#000000; stroke-linecap:round; stroke-linejoin:round; stroke-width:4; stroke-opacity:1; fill:none" points="542.199,1398.56 542.199,1423.18 618.895,1423.18 618.895,1398.56 542.199,1398.56 "/>
<path clip-path="url(#clip881)" d="M618.895 1368.14 L618.895 1423.18 L695.592 1423.18 L695.592 1368.14 L618.895 1368.14 L618.895 1368.14  Z" fill="#009af9" fill-rule="evenodd" fill-opacity="1"/>
<polyline clip-path="url(#clip881)" style="stroke:#000000; stroke-linecap:round; stroke-linejoin:round; stroke-width:4; stroke-opacity:1; fill:none" points="618.895,1368.14 618.895,1423.18 695.592,1423.18 695.592,1368.14 618.895,1368.14 "/>
<path clip-path="url(#clip881)" d="M695.592 1294.28 L695.592 1423.18 L772.288 1423.18 L772.288 1294.28 L695.592 1294.28 L695.592 1294.28  Z" fill="#009af9" fill-rule="evenodd" fill-opacity="1"/>
<polyline clip-path="url(#clip881)" style="stroke:#000000; stroke-linecap:round; stroke-linejoin:round; stroke-width:4; stroke-opacity:1; fill:none" points="695.592,1294.28 695.592,1423.18 772.288,1423.18 772.288,1294.28 695.592,1294.28 "/>
<path clip-path="url(#clip881)" d="M772.288 1210.27 L772.288 1423.18 L848.984 1423.18 L848.984 1210.27 L772.288 1210.27 L772.288 1210.27  Z" fill="#009af9" fill-rule="evenodd" fill-opacity="1"/>
<polyline clip-path="url(#clip881)" style="stroke:#000000; stroke-linecap:round; stroke-linejoin:round; stroke-width:4; stroke-opacity:1; fill:none" points="772.288,1210.27 772.288,1423.18 848.984,1423.18 848.984,1210.27 772.288,1210.27 "/>
<path clip-path="url(#clip881)" d="M848.984 1071.23 L848.984 1423.18 L925.681 1423.18 L925.681 1071.23 L848.984 1071.23 L848.984 1071.23  Z" fill="#009af9" fill-rule="evenodd" fill-opacity="1"/>
<polyline clip-path="url(#clip881)" style="stroke:#000000; stroke-linecap:round; stroke-linejoin:round; stroke-width:4; stroke-opacity:1; fill:none" points="848.984,1071.23 848.984,1423.18 925.681,1423.18 925.681,1071.23 848.984,1071.23 "/>
<path clip-path="url(#clip881)" d="M925.681 859.77 L925.681 1423.18 L1002.38 1423.18 L1002.38 859.77 L925.681 859.77 L925.681 859.77  Z" fill="#009af9" fill-rule="evenodd" fill-opacity="1"/>
<polyline clip-path="url(#clip881)" style="stroke:#000000; stroke-linecap:round; stroke-linejoin:round; stroke-width:4; stroke-opacity:1; fill:none" points="925.681,859.77 925.681,1423.18 1002.38,1423.18 1002.38,859.77 925.681,859.77 "/>
<path clip-path="url(#clip881)" d="M1002.38 633.827 L1002.38 1423.18 L1079.07 1423.18 L1079.07 633.827 L1002.38 633.827 L1002.38 633.827  Z" fill="#009af9" fill-rule="evenodd" fill-opacity="1"/>
<polyline clip-path="url(#clip881)" style="stroke:#000000; stroke-linecap:round; stroke-linejoin:round; stroke-width:4; stroke-opacity:1; fill:none" points="1002.38,633.827 1002.38,1423.18 1079.07,1423.18 1079.07,633.827 1002.38,633.827 "/>
<path clip-path="url(#clip881)" d="M1079.07 365.882 L1079.07 1423.18 L1155.77 1423.18 L1155.77 365.882 L1079.07 365.882 L1079.07 365.882  Z" fill="#009af9" fill-rule="evenodd" fill-opacity="1"/>
<polyline clip-path="url(#clip881)" style="stroke:#000000; stroke-linecap:round; stroke-linejoin:round; stroke-width:4; stroke-opacity:1; fill:none" points="1079.07,365.882 1079.07,1423.18 1155.77,1423.18 1155.77,365.882 1079.07,365.882 "/>
<path clip-path="url(#clip881)" d="M1155.77 190.631 L1155.77 1423.18 L1232.47 1423.18 L1232.47 190.631 L1155.77 190.631 L1155.77 190.631  Z" fill="#009af9" fill-rule="evenodd" fill-opacity="1"/>
<polyline clip-path="url(#clip881)" style="stroke:#000000; stroke-linecap:round; stroke-linejoin:round; stroke-width:4; stroke-opacity:1; fill:none" points="1155.77,190.631 1155.77,1423.18 1232.47,1423.18 1232.47,190.631 1155.77,190.631 "/>
<path clip-path="url(#clip881)" d="M1232.47 47.2441 L1232.47 1423.18 L1309.16 1423.18 L1309.16 47.2441 L1232.47 47.2441 L1232.47 47.2441  Z" fill="#009af9" fill-rule="evenodd" fill-opacity="1"/>
<polyline clip-path="url(#clip881)" style="stroke:#000000; stroke-linecap:round; stroke-linejoin:round; stroke-width:4; stroke-opacity:1; fill:none" points="1232.47,47.2441 1232.47,1423.18 1309.16,1423.18 1309.16,47.2441 1232.47,47.2441 "/>
<path clip-path="url(#clip881)" d="M1309.16 77.6595 L1309.16 1423.18 L1385.86 1423.18 L1385.86 77.6595 L1309.16 77.6595 L1309.16 77.6595  Z" fill="#009af9" fill-rule="evenodd" fill-opacity="1"/>
<polyline clip-path="url(#clip881)" style="stroke:#000000; stroke-linecap:round; stroke-linejoin:round; stroke-width:4; stroke-opacity:1; fill:none" points="1309.16,77.6595 1309.16,1423.18 1385.86,1423.18 1385.86,77.6595 1309.16,77.6595 "/>
<path clip-path="url(#clip881)" d="M1385.86 174.699 L1385.86 1423.18 L1462.56 1423.18 L1462.56 174.699 L1385.86 174.699 L1385.86 174.699  Z" fill="#009af9" fill-rule="evenodd" fill-opacity="1"/>
<polyline clip-path="url(#clip881)" style="stroke:#000000; stroke-linecap:round; stroke-linejoin:round; stroke-width:4; stroke-opacity:1; fill:none" points="1385.86,174.699 1385.86,1423.18 1462.56,1423.18 1462.56,174.699 1385.86,174.699 "/>
<path clip-path="url(#clip881)" d="M1462.56 373.124 L1462.56 1423.18 L1539.25 1423.18 L1539.25 373.124 L1462.56 373.124 L1462.56 373.124  Z" fill="#009af9" fill-rule="evenodd" fill-opacity="1"/>
<polyline clip-path="url(#clip881)" style="stroke:#000000; stroke-linecap:round; stroke-linejoin:round; stroke-width:4; stroke-opacity:1; fill:none" points="1462.56,373.124 1462.56,1423.18 1539.25,1423.18 1539.25,373.124 1462.56,373.124 "/>
<path clip-path="url(#clip881)" d="M1539.25 599.067 L1539.25 1423.18 L1615.95 1423.18 L1615.95 599.067 L1539.25 599.067 L1539.25 599.067  Z" fill="#009af9" fill-rule="evenodd" fill-opacity="1"/>
<polyline clip-path="url(#clip881)" style="stroke:#000000; stroke-linecap:round; stroke-linejoin:round; stroke-width:4; stroke-opacity:1; fill:none" points="1539.25,599.067 1539.25,1423.18 1615.95,1423.18 1615.95,599.067 1539.25,599.067 "/>
<path clip-path="url(#clip881)" d="M1615.95 871.357 L1615.95 1423.18 L1692.65 1423.18 L1692.65 871.357 L1615.95 871.357 L1615.95 871.357  Z" fill="#009af9" fill-rule="evenodd" fill-opacity="1"/>
<polyline clip-path="url(#clip881)" style="stroke:#000000; stroke-linecap:round; stroke-linejoin:round; stroke-width:4; stroke-opacity:1; fill:none" points="1615.95,871.357 1615.95,1423.18 1692.65,1423.18 1692.65,871.357 1615.95,871.357 "/>
<path clip-path="url(#clip881)" d="M1692.65 1074.13 L1692.65 1423.18 L1769.34 1423.18 L1769.34 1074.13 L1692.65 1074.13 L1692.65 1074.13  Z" fill="#009af9" fill-rule="evenodd" fill-opacity="1"/>
<polyline clip-path="url(#clip881)" style="stroke:#000000; stroke-linecap:round; stroke-linejoin:round; stroke-width:4; stroke-opacity:1; fill:none" points="1692.65,1074.13 1692.65,1423.18 1769.34,1423.18 1769.34,1074.13 1692.65,1074.13 "/>
<path clip-path="url(#clip881)" d="M1769.34 1205.93 L1769.34 1423.18 L1846.04 1423.18 L1846.04 1205.93 L1769.34 1205.93 L1769.34 1205.93  Z" fill="#009af9" fill-rule="evenodd" fill-opacity="1"/>
<polyline clip-path="url(#clip881)" style="stroke:#000000; stroke-linecap:round; stroke-linejoin:round; stroke-width:4; stroke-opacity:1; fill:none" points="1769.34,1205.93 1769.34,1423.18 1846.04,1423.18 1846.04,1205.93 1769.34,1205.93 "/>
<path clip-path="url(#clip881)" d="M1846.04 1323.24 L1846.04 1423.18 L1922.73 1423.18 L1922.73 1323.24 L1846.04 1323.24 L1846.04 1323.24  Z" fill="#009af9" fill-rule="evenodd" fill-opacity="1"/>
<polyline clip-path="url(#clip881)" style="stroke:#000000; stroke-linecap:round; stroke-linejoin:round; stroke-width:4; stroke-opacity:1; fill:none" points="1846.04,1323.24 1846.04,1423.18 1922.73,1423.18 1922.73,1323.24 1846.04,1323.24 "/>
<path clip-path="url(#clip881)" d="M1922.73 1379.73 L1922.73 1423.18 L1999.43 1423.18 L1999.43 1379.73 L1922.73 1379.73 L1922.73 1379.73  Z" fill="#009af9" fill-rule="evenodd" fill-opacity="1"/>
<polyline clip-path="url(#clip881)" style="stroke:#000000; stroke-linecap:round; stroke-linejoin:round; stroke-width:4; stroke-opacity:1; fill:none" points="1922.73,1379.73 1922.73,1423.18 1999.43,1423.18 1999.43,1379.73 1922.73,1379.73 "/>
<path clip-path="url(#clip881)" d="M1999.43 1405.8 L1999.43 1423.18 L2076.13 1423.18 L2076.13 1405.8 L1999.43 1405.8 L1999.43 1405.8  Z" fill="#009af9" fill-rule="evenodd" fill-opacity="1"/>
<polyline clip-path="url(#clip881)" style="stroke:#000000; stroke-linecap:round; stroke-linejoin:round; stroke-width:4; stroke-opacity:1; fill:none" points="1999.43,1405.8 1999.43,1423.18 2076.13,1423.18 2076.13,1405.8 1999.43,1405.8 "/>
<path clip-path="url(#clip881)" d="M2076.13 1408.7 L2076.13 1423.18 L2152.82 1423.18 L2152.82 1408.7 L2076.13 1408.7 L2076.13 1408.7  Z" fill="#009af9" fill-rule="evenodd" fill-opacity="1"/>
<polyline clip-path="url(#clip881)" style="stroke:#000000; stroke-linecap:round; stroke-linejoin:round; stroke-width:4; stroke-opacity:1; fill:none" points="2076.13,1408.7 2076.13,1423.18 2152.82,1423.18 2152.82,1408.7 2076.13,1408.7 "/>
<path clip-path="url(#clip881)" d="M2152.82 1414.49 L2152.82 1423.18 L2229.52 1423.18 L2229.52 1414.49 L2152.82 1414.49 L2152.82 1414.49  Z" fill="#009af9" fill-rule="evenodd" fill-opacity="1"/>
<polyline clip-path="url(#clip881)" style="stroke:#000000; stroke-linecap:round; stroke-linejoin:round; stroke-width:4; stroke-opacity:1; fill:none" points="2152.82,1414.49 2152.82,1423.18 2229.52,1423.18 2229.52,1414.49 2152.82,1414.49 "/>
<circle clip-path="url(#clip881)" style="fill:#009af9; stroke:none; fill-opacity:0" cx="273.761" cy="1421.73" r="2"/>
<circle clip-path="url(#clip881)" style="fill:#009af9; stroke:none; fill-opacity:0" cx="350.458" cy="1421.73" r="2"/>
<circle clip-path="url(#clip881)" style="fill:#009af9; stroke:none; fill-opacity:0" cx="427.154" cy="1418.83" r="2"/>
<circle clip-path="url(#clip881)" style="fill:#009af9; stroke:none; fill-opacity:0" cx="503.85" cy="1405.8" r="2"/>
<circle clip-path="url(#clip881)" style="fill:#009af9; stroke:none; fill-opacity:0" cx="580.547" cy="1398.56" r="2"/>
<circle clip-path="url(#clip881)" style="fill:#009af9; stroke:none; fill-opacity:0" cx="657.243" cy="1368.14" r="2"/>
<circle clip-path="url(#clip881)" style="fill:#009af9; stroke:none; fill-opacity:0" cx="733.94" cy="1294.28" r="2"/>
<circle clip-path="url(#clip881)" style="fill:#009af9; stroke:none; fill-opacity:0" cx="810.636" cy="1210.27" r="2"/>
<circle clip-path="url(#clip881)" style="fill:#009af9; stroke:none; fill-opacity:0" cx="887.333" cy="1071.23" r="2"/>
<circle clip-path="url(#clip881)" style="fill:#009af9; stroke:none; fill-opacity:0" cx="964.029" cy="859.77" r="2"/>
<circle clip-path="url(#clip881)" style="fill:#009af9; stroke:none; fill-opacity:0" cx="1040.73" cy="633.827" r="2"/>
<circle clip-path="url(#clip881)" style="fill:#009af9; stroke:none; fill-opacity:0" cx="1117.42" cy="365.882" r="2"/>
<circle clip-path="url(#clip881)" style="fill:#009af9; stroke:none; fill-opacity:0" cx="1194.12" cy="190.631" r="2"/>
<circle clip-path="url(#clip881)" style="fill:#009af9; stroke:none; fill-opacity:0" cx="1270.81" cy="47.2441" r="2"/>
<circle clip-path="url(#clip881)" style="fill:#009af9; stroke:none; fill-opacity:0" cx="1347.51" cy="77.6595" r="2"/>
<circle clip-path="url(#clip881)" style="fill:#009af9; stroke:none; fill-opacity:0" cx="1424.21" cy="174.699" r="2"/>
<circle clip-path="url(#clip881)" style="fill:#009af9; stroke:none; fill-opacity:0" cx="1500.9" cy="373.124" r="2"/>
<circle clip-path="url(#clip881)" style="fill:#009af9; stroke:none; fill-opacity:0" cx="1577.6" cy="599.067" r="2"/>
<circle clip-path="url(#clip881)" style="fill:#009af9; stroke:none; fill-opacity:0" cx="1654.3" cy="871.357" r="2"/>
<circle clip-path="url(#clip881)" style="fill:#009af9; stroke:none; fill-opacity:0" cx="1730.99" cy="1074.13" r="2"/>
<circle clip-path="url(#clip881)" style="fill:#009af9; stroke:none; fill-opacity:0" cx="1807.69" cy="1205.93" r="2"/>
<circle clip-path="url(#clip881)" style="fill:#009af9; stroke:none; fill-opacity:0" cx="1884.39" cy="1323.24" r="2"/>
<circle clip-path="url(#clip881)" style="fill:#009af9; stroke:none; fill-opacity:0" cx="1961.08" cy="1379.73" r="2"/>
<circle clip-path="url(#clip881)" style="fill:#009af9; stroke:none; fill-opacity:0" cx="2037.78" cy="1405.8" r="2"/>
<circle clip-path="url(#clip881)" style="fill:#009af9; stroke:none; fill-opacity:0" cx="2114.48" cy="1408.7" r="2"/>
<circle clip-path="url(#clip881)" style="fill:#009af9; stroke:none; fill-opacity:0" cx="2191.17" cy="1414.49" r="2"/>
<polyline clip-path="url(#clip881)" style="stroke:#ff0000; stroke-linecap:round; stroke-linejoin:round; stroke-width:8; stroke-opacity:1; fill:none" points="1050.05,2799.12 1050.05,-1328.69 "/>
<polyline clip-path="url(#clip881)" style="stroke:#ff0000; stroke-linecap:round; stroke-linejoin:round; stroke-width:8; stroke-opacity:1; fill:none" points="1564.53,2799.12 1564.53,-1328.69 "/>
<path clip-path="url(#clip880)" d="M1734.96 248.629 L2278.07 248.629 L2278.07 93.1086 L1734.96 93.1086  Z" fill="#ffffff" fill-rule="evenodd" fill-opacity="1"/>
<polyline clip-path="url(#clip880)" style="stroke:#000000; stroke-linecap:round; stroke-linejoin:round; stroke-width:4; stroke-opacity:1; fill:none" points="1734.96,248.629 2278.07,248.629 2278.07,93.1086 1734.96,93.1086 1734.96,248.629 "/>
<path clip-path="url(#clip880)" d="M1759.86 165.685 L1909.23 165.685 L1909.23 124.213 L1759.86 124.213 L1759.86 165.685  Z" fill="#009af9" fill-rule="evenodd" fill-opacity="1"/>
<polyline clip-path="url(#clip880)" style="stroke:#000000; stroke-linecap:round; stroke-linejoin:round; stroke-width:4; stroke-opacity:1; fill:none" points="1759.86,165.685 1909.23,165.685 1909.23,124.213 1759.86,124.213 1759.86,165.685 "/>
<path clip-path="url(#clip880)" d="M1938.41 158.34 L1938.41 172.09 L1934.13 172.09 L1934.13 136.303 L1938.41 136.303 L1938.41 140.238 Q1939.75 137.923 1941.79 136.812 Q1943.85 135.678 1946.69 135.678 Q1951.42 135.678 1954.36 139.428 Q1957.32 143.178 1957.32 149.289 Q1957.32 155.4 1954.36 159.15 Q1951.42 162.9 1946.69 162.9 Q1943.85 162.9 1941.79 161.789 Q1939.75 160.655 1938.41 158.34 M1952.9 149.289 Q1952.9 144.59 1950.95 141.928 Q1949.03 139.243 1945.65 139.243 Q1942.27 139.243 1940.33 141.928 Q1938.41 144.59 1938.41 149.289 Q1938.41 153.988 1940.33 156.673 Q1942.27 159.335 1945.65 159.335 Q1949.03 159.335 1950.95 156.673 Q1952.9 153.988 1952.9 149.289 Z" fill="#000000" fill-rule="nonzero" fill-opacity="1" /><path clip-path="url(#clip880)" d="M1974.43 139.289 Q1971 139.289 1969.01 141.974 Q1967.02 144.636 1967.02 149.289 Q1967.02 153.942 1968.99 156.627 Q1970.98 159.289 1974.43 159.289 Q1977.83 159.289 1979.82 156.604 Q1981.81 153.918 1981.81 149.289 Q1981.81 144.682 1979.82 141.997 Q1977.83 139.289 1974.43 139.289 M1974.43 135.678 Q1979.98 135.678 1983.15 139.289 Q1986.32 142.9 1986.32 149.289 Q1986.32 155.655 1983.15 159.289 Q1979.98 162.9 1974.43 162.9 Q1968.85 162.9 1965.68 159.289 Q1962.53 155.655 1962.53 149.289 Q1962.53 142.9 1965.68 139.289 Q1968.85 135.678 1974.43 135.678 Z" fill="#000000" fill-rule="nonzero" fill-opacity="1" /><path clip-path="url(#clip880)" d="M2009.91 137.067 L2009.91 141.094 Q2008.11 140.169 2006.16 139.706 Q2004.22 139.243 2002.13 139.243 Q1998.96 139.243 1997.37 140.215 Q1995.79 141.187 1995.79 143.131 Q1995.79 144.613 1996.93 145.469 Q1998.06 146.303 2001.49 147.067 L2002.94 147.391 Q2007.48 148.363 2009.38 150.145 Q2011.3 151.905 2011.3 155.076 Q2011.3 158.687 2008.43 160.793 Q2005.58 162.9 2000.58 162.9 Q1998.5 162.9 1996.23 162.483 Q1993.99 162.09 1991.49 161.28 L1991.49 156.881 Q1993.85 158.108 1996.14 158.733 Q1998.43 159.335 2000.68 159.335 Q2003.69 159.335 2005.31 158.317 Q2006.93 157.275 2006.93 155.4 Q2006.93 153.664 2005.75 152.738 Q2004.59 151.812 2000.63 150.956 L1999.15 150.608 Q1995.19 149.775 1993.43 148.062 Q1991.67 146.326 1991.67 143.317 Q1991.67 139.659 1994.26 137.669 Q1996.86 135.678 2001.63 135.678 Q2003.99 135.678 2006.07 136.025 Q2008.15 136.372 2009.91 137.067 Z" fill="#000000" fill-rule="nonzero" fill-opacity="1" /><path clip-path="url(#clip880)" d="M2022.3 128.942 L2022.3 136.303 L2031.07 136.303 L2031.07 139.613 L2022.3 139.613 L2022.3 153.687 Q2022.3 156.858 2023.15 157.761 Q2024.03 158.664 2026.69 158.664 L2031.07 158.664 L2031.07 162.229 L2026.69 162.229 Q2021.76 162.229 2019.89 160.4 Q2018.01 158.548 2018.01 153.687 L2018.01 139.613 L2014.89 139.613 L2014.89 136.303 L2018.01 136.303 L2018.01 128.942 L2022.3 128.942 Z" fill="#000000" fill-rule="nonzero" fill-opacity="1" /><path clip-path="url(#clip880)" d="M2058.85 148.201 L2058.85 150.284 L2039.26 150.284 Q2039.54 154.682 2041.9 156.997 Q2044.29 159.289 2048.52 159.289 Q2050.98 159.289 2053.27 158.687 Q2055.58 158.085 2057.85 156.881 L2057.85 160.909 Q2055.56 161.881 2053.15 162.391 Q2050.75 162.9 2048.27 162.9 Q2042.06 162.9 2038.43 159.289 Q2034.82 155.678 2034.82 149.52 Q2034.82 143.155 2038.25 139.428 Q2041.69 135.678 2047.53 135.678 Q2052.76 135.678 2055.79 139.057 Q2058.85 142.414 2058.85 148.201 M2054.59 146.951 Q2054.54 143.456 2052.62 141.372 Q2050.72 139.289 2047.57 139.289 Q2044.01 139.289 2041.86 141.303 Q2039.73 143.317 2039.4 146.974 L2054.59 146.951 Z" fill="#000000" fill-rule="nonzero" fill-opacity="1" /><path clip-path="url(#clip880)" d="M2080.86 140.284 Q2080.14 139.868 2079.29 139.682 Q2078.45 139.474 2077.43 139.474 Q2073.82 139.474 2071.88 141.835 Q2069.96 144.173 2069.96 148.571 L2069.96 162.229 L2065.68 162.229 L2065.68 136.303 L2069.96 136.303 L2069.96 140.331 Q2071.3 137.969 2073.45 136.835 Q2075.61 135.678 2078.68 135.678 Q2079.12 135.678 2079.66 135.747 Q2080.19 135.794 2080.84 135.909 L2080.86 140.284 Z" fill="#000000" fill-rule="nonzero" fill-opacity="1" /><path clip-path="url(#clip880)" d="M2085.33 136.303 L2089.59 136.303 L2089.59 162.229 L2085.33 162.229 L2085.33 136.303 M2085.33 126.21 L2089.59 126.21 L2089.59 131.604 L2085.33 131.604 L2085.33 126.21 Z" fill="#000000" fill-rule="nonzero" fill-opacity="1" /><path clip-path="url(#clip880)" d="M2108.55 139.289 Q2105.12 139.289 2103.13 141.974 Q2101.14 144.636 2101.14 149.289 Q2101.14 153.942 2103.11 156.627 Q2105.1 159.289 2108.55 159.289 Q2111.95 159.289 2113.94 156.604 Q2115.93 153.918 2115.93 149.289 Q2115.93 144.682 2113.94 141.997 Q2111.95 139.289 2108.55 139.289 M2108.55 135.678 Q2114.1 135.678 2117.27 139.289 Q2120.44 142.9 2120.44 149.289 Q2120.44 155.655 2117.27 159.289 Q2114.1 162.9 2108.55 162.9 Q2102.97 162.9 2099.8 159.289 Q2096.65 155.655 2096.65 149.289 Q2096.65 142.9 2099.8 139.289 Q2102.97 135.678 2108.55 135.678 Z" fill="#000000" fill-rule="nonzero" fill-opacity="1" /><path clip-path="url(#clip880)" d="M2142.53 140.284 Q2141.81 139.868 2140.95 139.682 Q2140.12 139.474 2139.1 139.474 Q2135.49 139.474 2133.55 141.835 Q2131.62 144.173 2131.62 148.571 L2131.62 162.229 L2127.34 162.229 L2127.34 136.303 L2131.62 136.303 L2131.62 140.331 Q2132.97 137.969 2135.12 136.835 Q2137.27 135.678 2140.35 135.678 Q2140.79 135.678 2141.32 135.747 Q2141.86 135.794 2142.5 135.909 L2142.53 140.284 Z" fill="#000000" fill-rule="nonzero" fill-opacity="1" /><path clip-path="url(#clip880)" d="M2172.11 139.289 Q2168.68 139.289 2166.69 141.974 Q2164.7 144.636 2164.7 149.289 Q2164.7 153.942 2166.67 156.627 Q2168.66 159.289 2172.11 159.289 Q2175.51 159.289 2177.5 156.604 Q2179.49 153.918 2179.49 149.289 Q2179.49 144.682 2177.5 141.997 Q2175.51 139.289 2172.11 139.289 M2172.11 135.678 Q2177.67 135.678 2180.84 139.289 Q2184.01 142.9 2184.01 149.289 Q2184.01 155.655 2180.84 159.289 Q2177.67 162.9 2172.11 162.9 Q2166.53 162.9 2163.36 159.289 Q2160.21 155.655 2160.21 149.289 Q2160.21 142.9 2163.36 139.289 Q2166.53 135.678 2172.11 135.678 Z" fill="#000000" fill-rule="nonzero" fill-opacity="1" /><path clip-path="url(#clip880)" d="M2204.19 126.21 L2204.19 129.752 L2200.12 129.752 Q2197.83 129.752 2196.92 130.678 Q2196.05 131.604 2196.05 134.011 L2196.05 136.303 L2203.06 136.303 L2203.06 139.613 L2196.05 139.613 L2196.05 162.229 L2191.76 162.229 L2191.76 139.613 L2187.69 139.613 L2187.69 136.303 L2191.76 136.303 L2191.76 134.497 Q2191.76 130.169 2193.78 128.201 Q2195.79 126.21 2200.17 126.21 L2204.19 126.21 Z" fill="#000000" fill-rule="nonzero" fill-opacity="1" /><path clip-path="url(#clip880)" d="M2241.44 149.289 Q2241.44 144.59 2239.49 141.928 Q2237.57 139.243 2234.19 139.243 Q2230.81 139.243 2228.87 141.928 Q2226.95 144.59 2226.95 149.289 Q2226.95 153.988 2228.87 156.673 Q2230.81 159.335 2234.19 159.335 Q2237.57 159.335 2239.49 156.673 Q2241.44 153.988 2241.44 149.289 M2226.95 140.238 Q2228.29 137.923 2230.33 136.812 Q2232.39 135.678 2235.23 135.678 Q2239.96 135.678 2242.9 139.428 Q2245.86 143.178 2245.86 149.289 Q2245.86 155.4 2242.9 159.15 Q2239.96 162.9 2235.23 162.9 Q2232.39 162.9 2230.33 161.789 Q2228.29 160.655 2226.95 158.34 L2226.95 162.229 L2222.67 162.229 L2222.67 126.21 L2226.95 126.21 L2226.95 140.238 Z" fill="#000000" fill-rule="nonzero" fill-opacity="1" /><polyline clip-path="url(#clip880)" style="stroke:#ff0000; stroke-linecap:round; stroke-linejoin:round; stroke-width:8; stroke-opacity:1; fill:none" points="1759.86,196.789 1909.23,196.789 "/>
<path clip-path="url(#clip880)" d="M1946.46 194.925 Q1943.32 194.925 1941.46 197.078 Q1939.63 199.231 1939.63 202.981 Q1939.63 206.708 1941.46 208.883 Q1943.32 211.036 1946.46 211.036 Q1949.61 211.036 1951.44 208.883 Q1953.29 206.708 1953.29 202.981 Q1953.29 199.231 1951.44 197.078 Q1949.61 194.925 1946.46 194.925 M1955.75 180.273 L1955.75 184.532 Q1953.99 183.698 1952.18 183.259 Q1950.4 182.819 1948.64 182.819 Q1944.01 182.819 1941.56 185.944 Q1939.13 189.069 1938.78 195.388 Q1940.14 193.374 1942.2 192.309 Q1944.26 191.222 1946.74 191.222 Q1951.95 191.222 1954.96 194.393 Q1957.99 197.541 1957.99 202.981 Q1957.99 208.305 1954.84 211.522 Q1951.69 214.74 1946.46 214.74 Q1940.47 214.74 1937.3 210.157 Q1934.13 205.55 1934.13 196.823 Q1934.13 188.629 1938.01 183.768 Q1941.9 178.884 1948.45 178.884 Q1950.21 178.884 1952 179.231 Q1953.8 179.578 1955.75 180.273 Z" fill="#000000" fill-rule="nonzero" fill-opacity="1" /><path clip-path="url(#clip880)" d="M1976.05 197.657 Q1972.71 197.657 1970.79 199.439 Q1968.89 201.221 1968.89 204.346 Q1968.89 207.471 1970.79 209.254 Q1972.71 211.036 1976.05 211.036 Q1979.38 211.036 1981.3 209.254 Q1983.22 207.448 1983.22 204.346 Q1983.22 201.221 1981.3 199.439 Q1979.4 197.657 1976.05 197.657 M1971.37 195.666 Q1968.36 194.925 1966.67 192.865 Q1965 190.805 1965 187.842 Q1965 183.698 1967.94 181.291 Q1970.91 178.884 1976.05 178.884 Q1981.21 178.884 1984.15 181.291 Q1987.09 183.698 1987.09 187.842 Q1987.09 190.805 1985.4 192.865 Q1983.73 194.925 1980.75 195.666 Q1984.13 196.453 1986 198.745 Q1987.9 201.036 1987.9 204.346 Q1987.9 209.37 1984.82 212.055 Q1981.76 214.74 1976.05 214.74 Q1970.33 214.74 1967.25 212.055 Q1964.19 209.37 1964.19 204.346 Q1964.19 201.036 1966.09 198.745 Q1967.99 196.453 1971.37 195.666 M1969.66 188.282 Q1969.66 190.967 1971.32 192.472 Q1973.01 193.976 1976.05 193.976 Q1979.06 193.976 1980.75 192.472 Q1982.46 190.967 1982.46 188.282 Q1982.46 185.597 1980.75 184.092 Q1979.06 182.587 1976.05 182.587 Q1973.01 182.587 1971.32 184.092 Q1969.66 185.597 1969.66 188.282 Z" fill="#000000" fill-rule="nonzero" fill-opacity="1" /><path clip-path="url(#clip880)" d="M2040.68 198.86 Q2038.66 198.86 2037.5 200.573 Q2036.37 202.286 2036.37 205.342 Q2036.37 208.351 2037.5 210.087 Q2038.66 211.8 2040.68 211.8 Q2042.64 211.8 2043.78 210.087 Q2044.94 208.351 2044.94 205.342 Q2044.94 202.309 2043.78 200.596 Q2042.64 198.86 2040.68 198.86 M2040.68 195.921 Q2044.33 195.921 2046.49 198.467 Q2048.64 201.013 2048.64 205.342 Q2048.64 209.67 2046.46 212.217 Q2044.31 214.74 2040.68 214.74 Q2036.97 214.74 2034.82 212.217 Q2032.67 209.67 2032.67 205.342 Q2032.67 200.99 2034.82 198.467 Q2037 195.921 2040.68 195.921 M2016.79 181.823 Q2014.8 181.823 2013.64 183.56 Q2012.5 185.272 2012.5 188.282 Q2012.5 191.337 2013.64 193.05 Q2014.77 194.763 2016.79 194.763 Q2018.8 194.763 2019.94 193.05 Q2021.09 191.337 2021.09 188.282 Q2021.09 185.296 2019.94 183.56 Q2018.78 181.823 2016.79 181.823 M2037.69 178.884 L2041.39 178.884 L2019.77 214.74 L2016.07 214.74 L2037.69 178.884 M2016.79 178.884 Q2020.44 178.884 2022.62 181.43 Q2024.8 183.953 2024.8 188.282 Q2024.8 192.657 2022.62 195.18 Q2020.47 197.703 2016.79 197.703 Q2013.11 197.703 2010.95 195.18 Q2008.82 192.634 2008.82 188.282 Q2008.82 183.976 2010.98 181.43 Q2013.13 178.884 2016.79 178.884 Z" fill="#000000" fill-rule="nonzero" fill-opacity="1" /><path clip-path="url(#clip880)" d="M2089.45 189.138 L2089.45 193.12 Q2087.64 192.124 2085.81 191.638 Q2084.01 191.129 2082.16 191.129 Q2078.01 191.129 2075.72 193.768 Q2073.43 196.384 2073.43 201.129 Q2073.43 205.874 2075.72 208.513 Q2078.01 211.129 2082.16 211.129 Q2084.01 211.129 2085.81 210.643 Q2087.64 210.133 2089.45 209.138 L2089.45 213.073 Q2087.67 213.907 2085.74 214.323 Q2083.85 214.74 2081.69 214.74 Q2075.84 214.74 2072.39 211.059 Q2068.94 207.379 2068.94 201.129 Q2068.94 194.786 2072.41 191.152 Q2075.91 187.518 2081.97 187.518 Q2083.94 187.518 2085.81 187.935 Q2087.69 188.328 2089.45 189.138 Z" fill="#000000" fill-rule="nonzero" fill-opacity="1" /><path clip-path="url(#clip880)" d="M2111.88 192.124 Q2111.16 191.708 2110.31 191.522 Q2109.47 191.314 2108.45 191.314 Q2104.84 191.314 2102.9 193.675 Q2100.98 196.013 2100.98 200.411 L2100.98 214.069 L2096.69 214.069 L2096.69 188.143 L2100.98 188.143 L2100.98 192.171 Q2102.32 189.809 2104.47 188.675 Q2106.62 187.518 2109.7 187.518 Q2110.14 187.518 2110.68 187.587 Q2111.21 187.634 2111.86 187.749 L2111.88 192.124 Z" fill="#000000" fill-rule="nonzero" fill-opacity="1" /><path clip-path="url(#clip880)" d="M2137.48 200.041 L2137.48 202.124 L2117.9 202.124 Q2118.18 206.522 2120.54 208.837 Q2122.92 211.129 2127.16 211.129 Q2129.61 211.129 2131.9 210.527 Q2134.22 209.925 2136.49 208.721 L2136.49 212.749 Q2134.19 213.721 2131.79 214.231 Q2129.38 214.74 2126.9 214.74 Q2120.7 214.74 2117.06 211.129 Q2113.45 207.518 2113.45 201.36 Q2113.45 194.995 2116.88 191.268 Q2120.33 187.518 2126.16 187.518 Q2131.39 187.518 2134.43 190.897 Q2137.48 194.254 2137.48 200.041 M2133.22 198.791 Q2133.18 195.296 2131.25 193.212 Q2129.36 191.129 2126.21 191.129 Q2122.64 191.129 2120.49 193.143 Q2118.36 195.157 2118.04 198.814 L2133.22 198.791 Z" fill="#000000" fill-rule="nonzero" fill-opacity="1" /><path clip-path="url(#clip880)" d="M2161.53 192.078 L2161.53 178.05 L2165.79 178.05 L2165.79 214.069 L2161.53 214.069 L2161.53 210.18 Q2160.19 212.495 2158.13 213.629 Q2156.09 214.74 2153.22 214.74 Q2148.52 214.74 2145.56 210.99 Q2142.62 207.24 2142.62 201.129 Q2142.62 195.018 2145.56 191.268 Q2148.52 187.518 2153.22 187.518 Q2156.09 187.518 2158.13 188.652 Q2160.19 189.763 2161.53 192.078 M2147.02 201.129 Q2147.02 205.828 2148.94 208.513 Q2150.88 211.175 2154.26 211.175 Q2157.64 211.175 2159.59 208.513 Q2161.53 205.828 2161.53 201.129 Q2161.53 196.43 2159.59 193.768 Q2157.64 191.083 2154.26 191.083 Q2150.88 191.083 2148.94 193.768 Q2147.02 196.43 2147.02 201.129 Z" fill="#000000" fill-rule="nonzero" fill-opacity="1" /><path clip-path="url(#clip880)" d="M2174.56 188.143 L2178.82 188.143 L2178.82 214.069 L2174.56 214.069 L2174.56 188.143 M2174.56 178.05 L2178.82 178.05 L2178.82 183.444 L2174.56 183.444 L2174.56 178.05 Z" fill="#000000" fill-rule="nonzero" fill-opacity="1" /><path clip-path="url(#clip880)" d="M2206.35 201.129 Q2206.35 196.43 2204.4 193.768 Q2202.48 191.083 2199.1 191.083 Q2195.72 191.083 2193.78 193.768 Q2191.86 196.43 2191.86 201.129 Q2191.86 205.828 2193.78 208.513 Q2195.72 211.175 2199.1 211.175 Q2202.48 211.175 2204.4 208.513 Q2206.35 205.828 2206.35 201.129 M2191.86 192.078 Q2193.2 189.763 2195.24 188.652 Q2197.3 187.518 2200.14 187.518 Q2204.86 187.518 2207.8 191.268 Q2210.77 195.018 2210.77 201.129 Q2210.77 207.24 2207.8 210.99 Q2204.86 214.74 2200.14 214.74 Q2197.3 214.74 2195.24 213.629 Q2193.2 212.495 2191.86 210.18 L2191.86 214.069 L2187.57 214.069 L2187.57 178.05 L2191.86 178.05 L2191.86 192.078 Z" fill="#000000" fill-rule="nonzero" fill-opacity="1" /><path clip-path="url(#clip880)" d="M2217.83 178.05 L2222.09 178.05 L2222.09 214.069 L2217.83 214.069 L2217.83 178.05 Z" fill="#000000" fill-rule="nonzero" fill-opacity="1" /><path clip-path="url(#clip880)" d="M2253.17 200.041 L2253.17 202.124 L2233.59 202.124 Q2233.87 206.522 2236.23 208.837 Q2238.61 211.129 2242.85 211.129 Q2245.3 211.129 2247.6 210.527 Q2249.91 209.925 2252.18 208.721 L2252.18 212.749 Q2249.89 213.721 2247.48 214.231 Q2245.07 214.74 2242.6 214.74 Q2236.39 214.74 2232.76 211.129 Q2229.15 207.518 2229.15 201.36 Q2229.15 194.995 2232.57 191.268 Q2236.02 187.518 2241.86 187.518 Q2247.09 187.518 2250.12 190.897 Q2253.17 194.254 2253.17 200.041 M2248.92 198.791 Q2248.87 195.296 2246.95 193.212 Q2245.05 191.129 2241.9 191.129 Q2238.34 191.129 2236.18 193.143 Q2234.05 195.157 2233.73 198.814 L2248.92 198.791 Z" fill="#000000" fill-rule="nonzero" fill-opacity="1" /></svg>
