<?xml version="1.0" encoding="utf-8"?>
<svg xmlns="http://www.w3.org/2000/svg" xmlns:xlink="http://www.w3.org/1999/xlink" width="600" height="400" viewBox="0 0 2400 1600">
<defs>
  <clipPath id="clip010">
    <rect x="0" y="0" width="2400" height="1600"/>
  </clipPath>
</defs>
<path clip-path="url(#clip010)" d="M0 1600 L2400 1600 L2400 0 L0 0  Z" fill="#ffffff" fill-rule="evenodd" fill-opacity="1"/>
<defs>
  <clipPath id="clip011">
    <rect x="112" y="47" width="2242" height="1377"/>
  </clipPath>
</defs>
<path clip-path="url(#clip010)" d="M112.177 1423.18 L2352.76 1423.18 L2352.76 47.2441 L112.177 47.2441  Z" fill="#ffffff" fill-rule="evenodd" fill-opacity="1"/>
<polyline clip-path="url(#clip011)" style="stroke:#000000; stroke-linecap:round; stroke-linejoin:round; stroke-width:2; stroke-opacity:0.1; fill:none" points="318.501,1423.18 318.501,47.2441 "/>
<polyline clip-path="url(#clip011)" style="stroke:#000000; stroke-linecap:round; stroke-linejoin:round; stroke-width:2; stroke-opacity:0.1; fill:none" points="733.94,1423.18 733.94,47.2441 "/>
<polyline clip-path="url(#clip011)" style="stroke:#000000; stroke-linecap:round; stroke-linejoin:round; stroke-width:2; stroke-opacity:0.1; fill:none" points="1149.38,1423.18 1149.38,47.2441 "/>
<polyline clip-path="url(#clip011)" style="stroke:#000000; stroke-linecap:round; stroke-linejoin:round; stroke-width:2; stroke-opacity:0.1; fill:none" points="1564.82,1423.18 1564.82,47.2441 "/>
<polyline clip-path="url(#clip011)" style="stroke:#000000; stroke-linecap:round; stroke-linejoin:round; stroke-width:2; stroke-opacity:0.1; fill:none" points="1980.26,1423.18 1980.26,47.2441 "/>
<polyline clip-path="url(#clip011)" style="stroke:#000000; stroke-linecap:round; stroke-linejoin:round; stroke-width:2; stroke-opacity:0.1; fill:none" points="112.177,1423.18 2352.76,1423.18 "/>
<polyline clip-path="url(#clip011)" style="stroke:#000000; stroke-linecap:round; stroke-linejoin:round; stroke-width:2; stroke-opacity:0.1; fill:none" points="112.177,1190.95 2352.76,1190.95 "/>
<polyline clip-path="url(#clip011)" style="stroke:#000000; stroke-linecap:round; stroke-linejoin:round; stroke-width:2; stroke-opacity:0.1; fill:none" points="112.177,958.729 2352.76,958.729 "/>
<polyline clip-path="url(#clip011)" style="stroke:#000000; stroke-linecap:round; stroke-linejoin:round; stroke-width:2; stroke-opacity:0.1; fill:none" points="112.177,726.504 2352.76,726.504 "/>
<polyline clip-path="url(#clip011)" style="stroke:#000000; stroke-linecap:round; stroke-linejoin:round; stroke-width:2; stroke-opacity:0.1; fill:none" points="112.177,494.278 2352.76,494.278 "/>
<polyline clip-path="url(#clip011)" style="stroke:#000000; stroke-linecap:round; stroke-linejoin:round; stroke-width:2; stroke-opacity:0.1; fill:none" points="112.177,262.053 2352.76,262.053 "/>
<polyline clip-path="url(#clip010)" style="stroke:#000000; stroke-linecap:round; stroke-linejoin:round; stroke-width:4; stroke-opacity:1; fill:none" points="112.177,1423.18 2352.76,1423.18 "/>
<polyline clip-path="url(#clip010)" style="stroke:#000000; stroke-linecap:round; stroke-linejoin:round; stroke-width:4; stroke-opacity:1; fill:none" points="318.501,1423.18 318.501,1404.28 "/>
<polyline clip-path="url(#clip010)" style="stroke:#000000; stroke-linecap:round; stroke-linejoin:round; stroke-width:4; stroke-opacity:1; fill:none" points="733.94,1423.18 733.94,1404.28 "/>
<polyline clip-path="url(#clip010)" style="stroke:#000000; stroke-linecap:round; stroke-linejoin:round; stroke-width:4; stroke-opacity:1; fill:none" points="1149.38,1423.18 1149.38,1404.28 "/>
<polyline clip-path="url(#clip010)" style="stroke:#000000; stroke-linecap:round; stroke-linejoin:round; stroke-width:4; stroke-opacity:1; fill:none" points="1564.82,1423.18 1564.82,1404.28 "/>
<polyline clip-path="url(#clip010)" style="stroke:#000000; stroke-linecap:round; stroke-linejoin:round; stroke-width:4; stroke-opacity:1; fill:none" points="1980.26,1423.18 1980.26,1404.28 "/>
<path clip-path="url(#clip010)" d="M286.105 1481.64 L293.744 1481.64 L293.744 1455.28 L285.434 1456.95 L285.434 1452.69 L293.698 1451.02 L298.374 1451.02 L298.374 1481.64 L306.012 1481.64 L306.012 1485.58 L286.105 1485.58 L286.105 1481.64 Z" fill="#000000" fill-rule="nonzero" fill-opacity="1" /><path clip-path="url(#clip010)" d="M315.457 1479.7 L320.341 1479.7 L320.341 1485.58 L315.457 1485.58 L315.457 1479.7 Z" fill="#000000" fill-rule="nonzero" fill-opacity="1" /><path clip-path="url(#clip010)" d="M329.346 1451.02 L351.568 1451.02 L351.568 1453.01 L339.022 1485.58 L334.137 1485.58 L345.943 1454.96 L329.346 1454.96 L329.346 1451.02 Z" fill="#000000" fill-rule="nonzero" fill-opacity="1" /><path clip-path="url(#clip010)" d="M701.139 1481.64 L708.778 1481.64 L708.778 1455.28 L700.468 1456.95 L700.468 1452.69 L708.732 1451.02 L713.407 1451.02 L713.407 1481.64 L721.046 1481.64 L721.046 1485.58 L701.139 1485.58 L701.139 1481.64 Z" fill="#000000" fill-rule="nonzero" fill-opacity="1" /><path clip-path="url(#clip010)" d="M730.491 1479.7 L735.375 1479.7 L735.375 1485.58 L730.491 1485.58 L730.491 1479.7 Z" fill="#000000" fill-rule="nonzero" fill-opacity="1" /><path clip-path="url(#clip010)" d="M755.56 1469.17 Q752.227 1469.17 750.305 1470.95 Q748.407 1472.73 748.407 1475.86 Q748.407 1478.98 750.305 1480.77 Q752.227 1482.55 755.56 1482.55 Q758.893 1482.55 760.815 1480.77 Q762.736 1478.96 762.736 1475.86 Q762.736 1472.73 760.815 1470.95 Q758.916 1469.17 755.56 1469.17 M750.884 1467.18 Q747.875 1466.44 746.185 1464.38 Q744.518 1462.32 744.518 1459.35 Q744.518 1455.21 747.458 1452.8 Q750.421 1450.39 755.56 1450.39 Q760.722 1450.39 763.662 1452.8 Q766.602 1455.21 766.602 1459.35 Q766.602 1462.32 764.912 1464.38 Q763.245 1466.44 760.259 1467.18 Q763.639 1467.96 765.514 1470.26 Q767.412 1472.55 767.412 1475.86 Q767.412 1480.88 764.333 1483.57 Q761.278 1486.25 755.56 1486.25 Q749.842 1486.25 746.764 1483.57 Q743.708 1480.88 743.708 1475.86 Q743.708 1472.55 745.606 1470.26 Q747.505 1467.96 750.884 1467.18 M749.171 1459.79 Q749.171 1462.48 750.838 1463.98 Q752.528 1465.49 755.56 1465.49 Q758.569 1465.49 760.259 1463.98 Q761.972 1462.48 761.972 1459.79 Q761.972 1457.11 760.259 1455.6 Q758.569 1454.1 755.56 1454.1 Q752.528 1454.1 750.838 1455.6 Q749.171 1457.11 749.171 1459.79 Z" fill="#000000" fill-rule="nonzero" fill-opacity="1" /><path clip-path="url(#clip010)" d="M1116.62 1481.64 L1124.26 1481.64 L1124.26 1455.28 L1115.95 1456.95 L1115.95 1452.69 L1124.22 1451.02 L1128.89 1451.02 L1128.89 1481.64 L1136.53 1481.64 L1136.53 1485.58 L1116.62 1485.58 L1116.62 1481.64 Z" fill="#000000" fill-rule="nonzero" fill-opacity="1" /><path clip-path="url(#clip010)" d="M1145.98 1479.7 L1150.86 1479.7 L1150.86 1485.58 L1145.98 1485.58 L1145.98 1479.7 Z" fill="#000000" fill-rule="nonzero" fill-opacity="1" /><path clip-path="url(#clip010)" d="M1161.18 1484.86 L1161.18 1480.6 Q1162.94 1481.44 1164.75 1481.88 Q1166.55 1482.32 1168.29 1482.32 Q1172.92 1482.32 1175.35 1479.21 Q1177.8 1476.09 1178.15 1469.75 Q1176.81 1471.74 1174.75 1472.8 Q1172.69 1473.87 1170.19 1473.87 Q1165 1473.87 1161.97 1470.74 Q1158.96 1467.59 1158.96 1462.15 Q1158.96 1456.83 1162.11 1453.61 Q1165.26 1450.39 1170.49 1450.39 Q1176.49 1450.39 1179.63 1455 Q1182.8 1459.58 1182.8 1468.33 Q1182.8 1476.51 1178.92 1481.39 Q1175.05 1486.25 1168.5 1486.25 Q1166.74 1486.25 1164.93 1485.9 Q1163.13 1485.56 1161.18 1484.86 M1170.49 1470.21 Q1173.64 1470.21 1175.47 1468.06 Q1177.32 1465.9 1177.32 1462.15 Q1177.32 1458.43 1175.47 1456.27 Q1173.64 1454.1 1170.49 1454.1 Q1167.34 1454.1 1165.49 1456.27 Q1163.66 1458.43 1163.66 1462.15 Q1163.66 1465.9 1165.49 1468.06 Q1167.34 1470.21 1170.49 1470.21 Z" fill="#000000" fill-rule="nonzero" fill-opacity="1" /><path clip-path="url(#clip010)" d="M1536.06 1481.64 L1552.38 1481.64 L1552.38 1485.58 L1530.43 1485.58 L1530.43 1481.64 Q1533.09 1478.89 1537.68 1474.26 Q1542.28 1469.61 1543.46 1468.27 Q1545.71 1465.74 1546.59 1464.01 Q1547.49 1462.25 1547.49 1460.56 Q1547.49 1457.8 1545.55 1456.07 Q1543.63 1454.33 1540.52 1454.33 Q1538.32 1454.33 1535.87 1455.09 Q1533.44 1455.86 1530.66 1457.41 L1530.66 1452.69 Q1533.49 1451.55 1535.94 1450.97 Q1538.39 1450.39 1540.43 1450.39 Q1545.8 1450.39 1549 1453.08 Q1552.19 1455.77 1552.19 1460.26 Q1552.19 1462.39 1551.38 1464.31 Q1550.59 1466.2 1548.49 1468.8 Q1547.91 1469.47 1544.81 1472.69 Q1541.7 1475.88 1536.06 1481.64 Z" fill="#000000" fill-rule="nonzero" fill-opacity="1" /><path clip-path="url(#clip010)" d="M1562.19 1479.7 L1567.07 1479.7 L1567.07 1485.58 L1562.19 1485.58 L1562.19 1479.7 Z" fill="#000000" fill-rule="nonzero" fill-opacity="1" /><path clip-path="url(#clip010)" d="M1587.26 1454.1 Q1583.65 1454.1 1581.82 1457.66 Q1580.01 1461.2 1580.01 1468.33 Q1580.01 1475.44 1581.82 1479.01 Q1583.65 1482.55 1587.26 1482.55 Q1590.89 1482.55 1592.7 1479.01 Q1594.53 1475.44 1594.53 1468.33 Q1594.53 1461.2 1592.7 1457.66 Q1590.89 1454.1 1587.26 1454.1 M1587.26 1450.39 Q1593.07 1450.39 1596.13 1455 Q1599.2 1459.58 1599.2 1468.33 Q1599.2 1477.06 1596.13 1481.67 Q1593.07 1486.25 1587.26 1486.25 Q1581.45 1486.25 1578.37 1481.67 Q1575.32 1477.06 1575.32 1468.33 Q1575.32 1459.58 1578.37 1455 Q1581.45 1450.39 1587.26 1450.39 Z" fill="#000000" fill-rule="nonzero" fill-opacity="1" /><path clip-path="url(#clip010)" d="M1952.11 1481.64 L1968.43 1481.64 L1968.43 1485.58 L1946.48 1485.58 L1946.48 1481.64 Q1949.15 1478.89 1953.73 1474.26 Q1958.34 1469.61 1959.52 1468.27 Q1961.76 1465.74 1962.64 1464.01 Q1963.54 1462.25 1963.54 1460.56 Q1963.54 1457.8 1961.6 1456.07 Q1959.68 1454.33 1956.58 1454.33 Q1954.38 1454.33 1951.92 1455.09 Q1949.49 1455.86 1946.72 1457.41 L1946.72 1452.69 Q1949.54 1451.55 1951.99 1450.97 Q1954.45 1450.39 1956.48 1450.39 Q1961.85 1450.39 1965.05 1453.08 Q1968.24 1455.77 1968.24 1460.26 Q1968.24 1462.39 1967.43 1464.31 Q1966.65 1466.2 1964.54 1468.8 Q1963.96 1469.47 1960.86 1472.69 Q1957.76 1475.88 1952.11 1481.64 Z" fill="#000000" fill-rule="nonzero" fill-opacity="1" /><path clip-path="url(#clip010)" d="M1978.24 1479.7 L1983.13 1479.7 L1983.13 1485.58 L1978.24 1485.58 L1978.24 1479.7 Z" fill="#000000" fill-rule="nonzero" fill-opacity="1" /><path clip-path="url(#clip010)" d="M1994.12 1481.64 L2001.76 1481.64 L2001.76 1455.28 L1993.45 1456.95 L1993.45 1452.69 L2001.71 1451.02 L2006.39 1451.02 L2006.39 1481.64 L2014.03 1481.64 L2014.03 1485.58 L1994.12 1485.58 L1994.12 1481.64 Z" fill="#000000" fill-rule="nonzero" fill-opacity="1" /><path clip-path="url(#clip010)" d="M1242.33 1550.25 Q1242.33 1543.79 1239.66 1540.13 Q1237.02 1536.44 1232.37 1536.44 Q1227.72 1536.44 1225.05 1540.13 Q1222.41 1543.79 1222.41 1550.25 Q1222.41 1556.71 1225.05 1560.4 Q1227.72 1564.07 1232.37 1564.07 Q1237.02 1564.07 1239.66 1560.4 Q1242.33 1556.71 1242.33 1550.25 M1222.41 1537.81 Q1224.25 1534.62 1227.06 1533.1 Q1229.89 1531.54 1233.8 1531.54 Q1240.3 1531.54 1244.34 1536.69 Q1248.41 1541.85 1248.41 1550.25 Q1248.41 1558.65 1244.34 1563.81 Q1240.3 1568.97 1233.8 1568.97 Q1229.89 1568.97 1227.06 1567.44 Q1224.25 1565.88 1222.41 1562.7 L1222.41 1568.04 L1216.52 1568.04 L1216.52 1518.52 L1222.41 1518.52 L1222.41 1537.81 Z" fill="#000000" fill-rule="nonzero" fill-opacity="1" /><polyline clip-path="url(#clip010)" style="stroke:#000000; stroke-linecap:round; stroke-linejoin:round; stroke-width:4; stroke-opacity:1; fill:none" points="112.177,1423.18 112.177,47.2441 "/>
<polyline clip-path="url(#clip010)" style="stroke:#000000; stroke-linecap:round; stroke-linejoin:round; stroke-width:4; stroke-opacity:1; fill:none" points="112.177,1423.18 131.075,1423.18 "/>
<polyline clip-path="url(#clip010)" style="stroke:#000000; stroke-linecap:round; stroke-linejoin:round; stroke-width:4; stroke-opacity:1; fill:none" points="112.177,1190.95 131.075,1190.95 "/>
<polyline clip-path="url(#clip010)" style="stroke:#000000; stroke-linecap:round; stroke-linejoin:round; stroke-width:4; stroke-opacity:1; fill:none" points="112.177,958.729 131.075,958.729 "/>
<polyline clip-path="url(#clip010)" style="stroke:#000000; stroke-linecap:round; stroke-linejoin:round; stroke-width:4; stroke-opacity:1; fill:none" points="112.177,726.504 131.075,726.504 "/>
<polyline clip-path="url(#clip010)" style="stroke:#000000; stroke-linecap:round; stroke-linejoin:round; stroke-width:4; stroke-opacity:1; fill:none" points="112.177,494.278 131.075,494.278 "/>
<polyline clip-path="url(#clip010)" style="stroke:#000000; stroke-linecap:round; stroke-linejoin:round; stroke-width:4; stroke-opacity:1; fill:none" points="112.177,262.053 131.075,262.053 "/>
<path clip-path="url(#clip010)" d="M64.2328 1408.98 Q60.6217 1408.98 58.793 1412.54 Q56.9875 1416.08 56.9875 1423.21 Q56.9875 1430.32 58.793 1433.89 Q60.6217 1437.43 64.2328 1437.43 Q67.867 1437.43 69.6726 1433.89 Q71.5013 1430.32 71.5013 1423.21 Q71.5013 1416.08 69.6726 1412.54 Q67.867 1408.98 64.2328 1408.98 M64.2328 1405.27 Q70.0429 1405.27 73.0985 1409.88 Q76.1772 1414.46 76.1772 1423.21 Q76.1772 1431.94 73.0985 1436.55 Q70.0429 1441.13 64.2328 1441.13 Q58.4226 1441.13 55.344 1436.55 Q52.2884 1431.94 52.2884 1423.21 Q52.2884 1414.46 55.344 1409.88 Q58.4226 1405.27 64.2328 1405.27 Z" fill="#000000" fill-rule="nonzero" fill-opacity="1" /><path clip-path="url(#clip010)" d="M56.2699 1204.3 L63.9087 1204.3 L63.9087 1177.93 L55.5986 1179.6 L55.5986 1175.34 L63.8624 1173.67 L68.5383 1173.67 L68.5383 1204.3 L76.1772 1204.3 L76.1772 1208.23 L56.2699 1208.23 L56.2699 1204.3 Z" fill="#000000" fill-rule="nonzero" fill-opacity="1" /><path clip-path="url(#clip010)" d="M59.8578 972.074 L76.1772 972.074 L76.1772 976.009 L54.2328 976.009 L54.2328 972.074 Q56.8949 969.319 61.4782 964.69 Q66.0846 960.037 67.2652 958.694 Q69.5105 956.171 70.3902 954.435 Q71.2929 952.676 71.2929 950.986 Q71.2929 948.231 69.3485 946.495 Q67.4272 944.759 64.3254 944.759 Q62.1263 944.759 59.6726 945.523 Q57.2421 946.287 54.4643 947.838 L54.4643 943.116 Q57.2884 941.981 59.7421 941.403 Q62.1958 940.824 64.2328 940.824 Q69.6031 940.824 72.7976 943.509 Q75.992 946.194 75.992 950.685 Q75.992 952.815 75.1818 954.736 Q74.3948 956.634 72.2883 959.227 Q71.7096 959.898 68.6078 963.116 Q65.5059 966.31 59.8578 972.074 Z" fill="#000000" fill-rule="nonzero" fill-opacity="1" /><path clip-path="url(#clip010)" d="M69.0476 725.149 Q72.404 725.867 74.279 728.135 Q76.1772 730.404 76.1772 733.737 Q76.1772 738.853 72.6587 741.654 Q69.1402 744.455 62.6587 744.455 Q60.4828 744.455 58.168 744.015 Q55.8764 743.598 53.4227 742.742 L53.4227 738.228 Q55.3671 739.362 57.6819 739.941 Q59.9967 740.52 62.5198 740.52 Q66.918 740.52 69.2096 738.784 Q71.5244 737.047 71.5244 733.737 Q71.5244 730.682 69.3717 728.969 Q67.242 727.233 63.4226 727.233 L59.3949 727.233 L59.3949 723.39 L63.6078 723.39 Q67.0569 723.39 68.8855 722.024 Q70.7142 720.635 70.7142 718.043 Q70.7142 715.381 68.8161 713.969 Q66.9411 712.534 63.4226 712.534 Q61.5013 712.534 59.3023 712.95 Q57.1032 713.367 54.4643 714.247 L54.4643 710.08 Q57.1264 709.339 59.4412 708.969 Q61.7791 708.599 63.8393 708.599 Q69.1633 708.599 72.2652 711.029 Q75.367 713.436 75.367 717.557 Q75.367 720.427 73.7235 722.418 Q72.08 724.385 69.0476 725.149 Z" fill="#000000" fill-rule="nonzero" fill-opacity="1" /><path clip-path="url(#clip010)" d="M66.5939 481.072 L54.7884 499.521 L66.5939 499.521 L66.5939 481.072 M65.367 476.998 L71.2466 476.998 L71.2466 499.521 L76.1772 499.521 L76.1772 503.41 L71.2466 503.41 L71.2466 511.558 L66.5939 511.558 L66.5939 503.41 L50.9921 503.41 L50.9921 498.896 L65.367 476.998 Z" fill="#000000" fill-rule="nonzero" fill-opacity="1" /><path clip-path="url(#clip010)" d="M55.2745 244.773 L73.6309 244.773 L73.6309 248.708 L59.5569 248.708 L59.5569 257.18 Q60.5754 256.833 61.5939 256.671 Q62.6124 256.486 63.6309 256.486 Q69.418 256.486 72.7976 259.657 Q76.1772 262.828 76.1772 268.245 Q76.1772 273.823 72.705 276.925 Q69.2328 280.004 62.9134 280.004 Q60.7374 280.004 58.4689 279.634 Q56.2236 279.263 53.8162 278.522 L53.8162 273.823 Q55.8995 274.958 58.1217 275.513 Q60.3439 276.069 62.8208 276.069 Q66.8254 276.069 69.1633 273.962 Q71.5013 271.856 71.5013 268.245 Q71.5013 264.634 69.1633 262.527 Q66.8254 260.421 62.8208 260.421 Q60.9458 260.421 59.0708 260.837 Q57.2189 261.254 55.2745 262.134 L55.2745 244.773 Z" fill="#000000" fill-rule="nonzero" fill-opacity="1" /><path clip-path="url(#clip011)" d="M235.413 1417.37 L235.413 1423.18 L318.501 1423.18 L318.501 1417.37 L235.413 1417.37 L235.413 1417.37  Z" fill="#009af9" fill-rule="evenodd" fill-opacity="1"/>
<polyline clip-path="url(#clip011)" style="stroke:#000000; stroke-linecap:round; stroke-linejoin:round; stroke-width:4; stroke-opacity:1; fill:none" points="235.413,1417.37 235.413,1423.18 318.501,1423.18 318.501,1417.37 235.413,1417.37 "/>
<path clip-path="url(#clip011)" d="M318.501 1423.18 L318.501 1423.18 L401.589 1423.18 L401.589 1423.18 L318.501 1423.18 L318.501 1423.18  Z" fill="#009af9" fill-rule="evenodd" fill-opacity="1"/>
<polyline clip-path="url(#clip011)" style="stroke:#000000; stroke-linecap:round; stroke-linejoin:round; stroke-width:4; stroke-opacity:1; fill:none" points="318.501,1423.18 318.501,1423.18 401.589,1423.18 318.501,1423.18 "/>
<path clip-path="url(#clip011)" d="M401.589 1414.47 L401.589 1423.18 L484.676 1423.18 L484.676 1414.47 L401.589 1414.47 L401.589 1414.47  Z" fill="#009af9" fill-rule="evenodd" fill-opacity="1"/>
<polyline clip-path="url(#clip011)" style="stroke:#000000; stroke-linecap:round; stroke-linejoin:round; stroke-width:4; stroke-opacity:1; fill:none" points="401.589,1414.47 401.589,1423.18 484.676,1423.18 484.676,1414.47 401.589,1414.47 "/>
<path clip-path="url(#clip011)" d="M484.676 1399.96 L484.676 1423.18 L567.764 1423.18 L567.764 1399.96 L484.676 1399.96 L484.676 1399.96  Z" fill="#009af9" fill-rule="evenodd" fill-opacity="1"/>
<polyline clip-path="url(#clip011)" style="stroke:#000000; stroke-linecap:round; stroke-linejoin:round; stroke-width:4; stroke-opacity:1; fill:none" points="484.676,1399.96 484.676,1423.18 567.764,1423.18 567.764,1399.96 484.676,1399.96 "/>
<path clip-path="url(#clip011)" d="M567.764 1376.73 L567.764 1423.18 L650.852 1423.18 L650.852 1376.73 L567.764 1376.73 L567.764 1376.73  Z" fill="#009af9" fill-rule="evenodd" fill-opacity="1"/>
<polyline clip-path="url(#clip011)" style="stroke:#000000; stroke-linecap:round; stroke-linejoin:round; stroke-width:4; stroke-opacity:1; fill:none" points="567.764,1376.73 567.764,1423.18 650.852,1423.18 650.852,1376.73 567.764,1376.73 "/>
<path clip-path="url(#clip011)" d="M650.852 1309.97 L650.852 1423.18 L733.94 1423.18 L733.94 1309.97 L650.852 1309.97 L650.852 1309.97  Z" fill="#009af9" fill-rule="evenodd" fill-opacity="1"/>
<polyline clip-path="url(#clip011)" style="stroke:#000000; stroke-linecap:round; stroke-linejoin:round; stroke-width:4; stroke-opacity:1; fill:none" points="650.852,1309.97 650.852,1423.18 733.94,1423.18 733.94,1309.97 650.852,1309.97 "/>
<path clip-path="url(#clip011)" d="M733.94 1161.93 L733.94 1423.18 L817.028 1423.18 L817.028 1161.93 L733.94 1161.93 L733.94 1161.93  Z" fill="#009af9" fill-rule="evenodd" fill-opacity="1"/>
<polyline clip-path="url(#clip011)" style="stroke:#000000; stroke-linecap:round; stroke-linejoin:round; stroke-width:4; stroke-opacity:1; fill:none" points="733.94,1161.93 733.94,1423.18 817.028,1423.18 817.028,1161.93 733.94,1161.93 "/>
<path clip-path="url(#clip011)" d="M817.028 1028.4 L817.028 1423.18 L900.115 1423.18 L900.115 1028.4 L817.028 1028.4 L817.028 1028.4  Z" fill="#009af9" fill-rule="evenodd" fill-opacity="1"/>
<polyline clip-path="url(#clip011)" style="stroke:#000000; stroke-linecap:round; stroke-linejoin:round; stroke-width:4; stroke-opacity:1; fill:none" points="817.028,1028.4 817.028,1423.18 900.115,1423.18 900.115,1028.4 817.028,1028.4 "/>
<path clip-path="url(#clip011)" d="M900.115 897.77 L900.115 1423.18 L983.203 1423.18 L983.203 897.77 L900.115 897.77 L900.115 897.77  Z" fill="#009af9" fill-rule="evenodd" fill-opacity="1"/>
<polyline clip-path="url(#clip011)" style="stroke:#000000; stroke-linecap:round; stroke-linejoin:round; stroke-width:4; stroke-opacity:1; fill:none" points="900.115,897.77 900.115,1423.18 983.203,1423.18 983.203,897.77 900.115,897.77 "/>
<path clip-path="url(#clip011)" d="M983.203 630.711 L983.203 1423.18 L1066.29 1423.18 L1066.29 630.711 L983.203 630.711 L983.203 630.711  Z" fill="#009af9" fill-rule="evenodd" fill-opacity="1"/>
<polyline clip-path="url(#clip011)" style="stroke:#000000; stroke-linecap:round; stroke-linejoin:round; stroke-width:4; stroke-opacity:1; fill:none" points="983.203,630.711 983.203,1423.18 1066.29,1423.18 1066.29,630.711 983.203,630.711 "/>
<path clip-path="url(#clip011)" d="M1066.29 343.332 L1066.29 1423.18 L1149.38 1423.18 L1149.38 343.332 L1066.29 343.332 L1066.29 343.332  Z" fill="#009af9" fill-rule="evenodd" fill-opacity="1"/>
<polyline clip-path="url(#clip011)" style="stroke:#000000; stroke-linecap:round; stroke-linejoin:round; stroke-width:4; stroke-opacity:1; fill:none" points="1066.29,343.332 1066.29,1423.18 1149.38,1423.18 1149.38,343.332 1066.29,343.332 "/>
<path clip-path="url(#clip011)" d="M1149.38 131.426 L1149.38 1423.18 L1232.47 1423.18 L1232.47 131.426 L1149.38 131.426 L1149.38 131.426  Z" fill="#009af9" fill-rule="evenodd" fill-opacity="1"/>
<polyline clip-path="url(#clip011)" style="stroke:#000000; stroke-linecap:round; stroke-linejoin:round; stroke-width:4; stroke-opacity:1; fill:none" points="1149.38,131.426 1149.38,1423.18 1232.47,1423.18 1232.47,131.426 1149.38,131.426 "/>
<path clip-path="url(#clip011)" d="M1232.47 64.661 L1232.47 1423.18 L1315.55 1423.18 L1315.55 64.661 L1232.47 64.661 L1232.47 64.661  Z" fill="#009af9" fill-rule="evenodd" fill-opacity="1"/>
<polyline clip-path="url(#clip011)" style="stroke:#000000; stroke-linecap:round; stroke-linejoin:round; stroke-width:4; stroke-opacity:1; fill:none" points="1232.47,64.661 1232.47,1423.18 1315.55,1423.18 1315.55,64.661 1232.47,64.661 "/>
<path clip-path="url(#clip011)" d="M1315.55 47.2441 L1315.55 1423.18 L1398.64 1423.18 L1398.64 47.2441 L1315.55 47.2441 L1315.55 47.2441  Z" fill="#009af9" fill-rule="evenodd" fill-opacity="1"/>
<polyline clip-path="url(#clip011)" style="stroke:#000000; stroke-linecap:round; stroke-linejoin:round; stroke-width:4; stroke-opacity:1; fill:none" points="1315.55,47.2441 1315.55,1423.18 1398.64,1423.18 1398.64,47.2441 1315.55,47.2441 "/>
<path clip-path="url(#clip011)" d="M1398.64 154.648 L1398.64 1423.18 L1481.73 1423.18 L1481.73 154.648 L1398.64 154.648 L1398.64 154.648  Z" fill="#009af9" fill-rule="evenodd" fill-opacity="1"/>
<polyline clip-path="url(#clip011)" style="stroke:#000000; stroke-linecap:round; stroke-linejoin:round; stroke-width:4; stroke-opacity:1; fill:none" points="1398.64,154.648 1398.64,1423.18 1481.73,1423.18 1481.73,154.648 1398.64,154.648 "/>
<path clip-path="url(#clip011)" d="M1481.73 331.72 L1481.73 1423.18 L1564.82 1423.18 L1564.82 331.72 L1481.73 331.72 L1481.73 331.72  Z" fill="#009af9" fill-rule="evenodd" fill-opacity="1"/>
<polyline clip-path="url(#clip011)" style="stroke:#000000; stroke-linecap:round; stroke-linejoin:round; stroke-width:4; stroke-opacity:1; fill:none" points="1481.73,331.72 1481.73,1423.18 1564.82,1423.18 1564.82,331.72 1481.73,331.72 "/>
<path clip-path="url(#clip011)" d="M1564.82 662.642 L1564.82 1423.18 L1647.91 1423.18 L1647.91 662.642 L1564.82 662.642 L1564.82 662.642  Z" fill="#009af9" fill-rule="evenodd" fill-opacity="1"/>
<polyline clip-path="url(#clip011)" style="stroke:#000000; stroke-linecap:round; stroke-linejoin:round; stroke-width:4; stroke-opacity:1; fill:none" points="1564.82,662.642 1564.82,1423.18 1647.91,1423.18 1647.91,662.642 1564.82,662.642 "/>
<path clip-path="url(#clip011)" d="M1647.91 932.604 L1647.91 1423.18 L1730.99 1423.18 L1730.99 932.604 L1647.91 932.604 L1647.91 932.604  Z" fill="#009af9" fill-rule="evenodd" fill-opacity="1"/>
<polyline clip-path="url(#clip011)" style="stroke:#000000; stroke-linecap:round; stroke-linejoin:round; stroke-width:4; stroke-opacity:1; fill:none" points="1647.91,932.604 1647.91,1423.18 1730.99,1423.18 1730.99,932.604 1647.91,932.604 "/>
<path clip-path="url(#clip011)" d="M1730.99 1040.01 L1730.99 1423.18 L1814.08 1423.18 L1814.08 1040.01 L1730.99 1040.01 L1730.99 1040.01  Z" fill="#009af9" fill-rule="evenodd" fill-opacity="1"/>
<polyline clip-path="url(#clip011)" style="stroke:#000000; stroke-linecap:round; stroke-linejoin:round; stroke-width:4; stroke-opacity:1; fill:none" points="1730.99,1040.01 1730.99,1423.18 1814.08,1423.18 1814.08,1040.01 1730.99,1040.01 "/>
<path clip-path="url(#clip011)" d="M1814.08 1257.72 L1814.08 1423.18 L1897.17 1423.18 L1897.17 1257.72 L1814.08 1257.72 L1814.08 1257.72  Z" fill="#009af9" fill-rule="evenodd" fill-opacity="1"/>
<polyline clip-path="url(#clip011)" style="stroke:#000000; stroke-linecap:round; stroke-linejoin:round; stroke-width:4; stroke-opacity:1; fill:none" points="1814.08,1257.72 1814.08,1423.18 1897.17,1423.18 1897.17,1257.72 1814.08,1257.72 "/>
<path clip-path="url(#clip011)" d="M1897.17 1321.58 L1897.17 1423.18 L1980.26 1423.18 L1980.26 1321.58 L1897.17 1321.58 L1897.17 1321.58  Z" fill="#009af9" fill-rule="evenodd" fill-opacity="1"/>
<polyline clip-path="url(#clip011)" style="stroke:#000000; stroke-linecap:round; stroke-linejoin:round; stroke-width:4; stroke-opacity:1; fill:none" points="1897.17,1321.58 1897.17,1423.18 1980.26,1423.18 1980.26,1321.58 1897.17,1321.58 "/>
<path clip-path="url(#clip011)" d="M1980.26 1370.93 L1980.26 1423.18 L2063.34 1423.18 L2063.34 1370.93 L1980.26 1370.93 L1980.26 1370.93  Z" fill="#009af9" fill-rule="evenodd" fill-opacity="1"/>
<polyline clip-path="url(#clip011)" style="stroke:#000000; stroke-linecap:round; stroke-linejoin:round; stroke-width:4; stroke-opacity:1; fill:none" points="1980.26,1370.93 1980.26,1423.18 2063.34,1423.18 2063.34,1370.93 1980.26,1370.93 "/>
<path clip-path="url(#clip011)" d="M2063.34 1408.67 L2063.34 1423.18 L2146.43 1423.18 L2146.43 1408.67 L2063.34 1408.67 L2063.34 1408.67  Z" fill="#009af9" fill-rule="evenodd" fill-opacity="1"/>
<polyline clip-path="url(#clip011)" style="stroke:#000000; stroke-linecap:round; stroke-linejoin:round; stroke-width:4; stroke-opacity:1; fill:none" points="2063.34,1408.67 2063.34,1423.18 2146.43,1423.18 2146.43,1408.67 2063.34,1408.67 "/>
<path clip-path="url(#clip011)" d="M2146.43 1417.37 L2146.43 1423.18 L2229.52 1423.18 L2229.52 1417.37 L2146.43 1417.37 L2146.43 1417.37  Z" fill="#009af9" fill-rule="evenodd" fill-opacity="1"/>
<polyline clip-path="url(#clip011)" style="stroke:#000000; stroke-linecap:round; stroke-linejoin:round; stroke-width:4; stroke-opacity:1; fill:none" points="2146.43,1417.37 2146.43,1423.18 2229.52,1423.18 2229.52,1417.37 2146.43,1417.37 "/>
<circle clip-path="url(#clip011)" style="fill:#009af9; stroke:none; fill-opacity:0" cx="276.957" cy="1417.37" r="2"/>
<circle clip-path="url(#clip011)" style="fill:#009af9; stroke:none; fill-opacity:0" cx="360.045" cy="1423.18" r="2"/>
<circle clip-path="url(#clip011)" style="fill:#009af9; stroke:none; fill-opacity:0" cx="443.132" cy="1414.47" r="2"/>
<circle clip-path="url(#clip011)" style="fill:#009af9; stroke:none; fill-opacity:0" cx="526.22" cy="1399.96" r="2"/>
<circle clip-path="url(#clip011)" style="fill:#009af9; stroke:none; fill-opacity:0" cx="609.308" cy="1376.73" r="2"/>
<circle clip-path="url(#clip011)" style="fill:#009af9; stroke:none; fill-opacity:0" cx="692.396" cy="1309.97" r="2"/>
<circle clip-path="url(#clip011)" style="fill:#009af9; stroke:none; fill-opacity:0" cx="775.484" cy="1161.93" r="2"/>
<circle clip-path="url(#clip011)" style="fill:#009af9; stroke:none; fill-opacity:0" cx="858.571" cy="1028.4" r="2"/>
<circle clip-path="url(#clip011)" style="fill:#009af9; stroke:none; fill-opacity:0" cx="941.659" cy="897.77" r="2"/>
<circle clip-path="url(#clip011)" style="fill:#009af9; stroke:none; fill-opacity:0" cx="1024.75" cy="630.711" r="2"/>
<circle clip-path="url(#clip011)" style="fill:#009af9; stroke:none; fill-opacity:0" cx="1107.83" cy="343.332" r="2"/>
<circle clip-path="url(#clip011)" style="fill:#009af9; stroke:none; fill-opacity:0" cx="1190.92" cy="131.426" r="2"/>
<circle clip-path="url(#clip011)" style="fill:#009af9; stroke:none; fill-opacity:0" cx="1274.01" cy="64.661" r="2"/>
<circle clip-path="url(#clip011)" style="fill:#009af9; stroke:none; fill-opacity:0" cx="1357.1" cy="47.2441" r="2"/>
<circle clip-path="url(#clip011)" style="fill:#009af9; stroke:none; fill-opacity:0" cx="1440.19" cy="154.648" r="2"/>
<circle clip-path="url(#clip011)" style="fill:#009af9; stroke:none; fill-opacity:0" cx="1523.27" cy="331.72" r="2"/>
<circle clip-path="url(#clip011)" style="fill:#009af9; stroke:none; fill-opacity:0" cx="1606.36" cy="662.642" r="2"/>
<circle clip-path="url(#clip011)" style="fill:#009af9; stroke:none; fill-opacity:0" cx="1689.45" cy="932.604" r="2"/>
<circle clip-path="url(#clip011)" style="fill:#009af9; stroke:none; fill-opacity:0" cx="1772.54" cy="1040.01" r="2"/>
<circle clip-path="url(#clip011)" style="fill:#009af9; stroke:none; fill-opacity:0" cx="1855.63" cy="1257.72" r="2"/>
<circle clip-path="url(#clip011)" style="fill:#009af9; stroke:none; fill-opacity:0" cx="1938.71" cy="1321.58" r="2"/>
<circle clip-path="url(#clip011)" style="fill:#009af9; stroke:none; fill-opacity:0" cx="2021.8" cy="1370.93" r="2"/>
<circle clip-path="url(#clip011)" style="fill:#009af9; stroke:none; fill-opacity:0" cx="2104.89" cy="1408.67" r="2"/>
<circle clip-path="url(#clip011)" style="fill:#009af9; stroke:none; fill-opacity:0" cx="2187.98" cy="1417.37" r="2"/>
<polyline clip-path="url(#clip011)" style="stroke:#ff0000; stroke-linecap:round; stroke-linejoin:round; stroke-width:8; stroke-opacity:1; fill:none" points="1035.97,2799.12 1035.97,-1328.69 "/>
<polyline clip-path="url(#clip011)" style="stroke:#ff0000; stroke-linecap:round; stroke-linejoin:round; stroke-width:8; stroke-opacity:1; fill:none" points="1580.65,2799.12 1580.65,-1328.69 "/>
<path clip-path="url(#clip010)" d="M1734.96 248.629 L2278.07 248.629 L2278.07 93.1086 L1734.96 93.1086  Z" fill="#ffffff" fill-rule="evenodd" fill-opacity="1"/>
<polyline clip-path="url(#clip010)" style="stroke:#000000; stroke-linecap:round; stroke-linejoin:round; stroke-width:4; stroke-opacity:1; fill:none" points="1734.96,248.629 2278.07,248.629 2278.07,93.1086 1734.96,93.1086 1734.96,248.629 "/>
<path clip-path="url(#clip010)" d="M1759.86 165.685 L1909.23 165.685 L1909.23 124.213 L1759.86 124.213 L1759.86 165.685  Z" fill="#009af9" fill-rule="evenodd" fill-opacity="1"/>
<polyline clip-path="url(#clip010)" style="stroke:#000000; stroke-linecap:round; stroke-linejoin:round; stroke-width:4; stroke-opacity:1; fill:none" points="1759.86,165.685 1909.23,165.685 1909.23,124.213 1759.86,124.213 1759.86,165.685 "/>
<path clip-path="url(#clip010)" d="M1938.41 158.34 L1938.41 172.09 L1934.13 172.09 L1934.13 136.303 L1938.41 136.303 L1938.41 140.238 Q1939.75 137.923 1941.79 136.812 Q1943.85 135.678 1946.69 135.678 Q1951.42 135.678 1954.36 139.428 Q1957.32 143.178 1957.32 149.289 Q1957.32 155.4 1954.36 159.15 Q1951.42 162.9 1946.69 162.9 Q1943.85 162.9 1941.79 161.789 Q1939.75 160.655 1938.41 158.34 M1952.9 149.289 Q1952.9 144.59 1950.95 141.928 Q1949.03 139.243 1945.65 139.243 Q1942.27 139.243 1940.33 141.928 Q1938.41 144.59 1938.41 149.289 Q1938.41 153.988 1940.33 156.673 Q1942.27 159.335 1945.65 159.335 Q1949.03 159.335 1950.95 156.673 Q1952.9 153.988 1952.9 149.289 Z" fill="#000000" fill-rule="nonzero" fill-opacity="1" /><path clip-path="url(#clip010)" d="M1974.43 139.289 Q1971 139.289 1969.01 141.974 Q1967.02 144.636 1967.02 149.289 Q1967.02 153.942 1968.99 156.627 Q1970.98 159.289 1974.43 159.289 Q1977.83 159.289 1979.82 156.604 Q1981.81 153.918 1981.81 149.289 Q1981.81 144.682 1979.82 141.997 Q1977.83 139.289 1974.43 139.289 M1974.43 135.678 Q1979.98 135.678 1983.15 139.289 Q1986.32 142.9 1986.32 149.289 Q1986.32 155.655 1983.15 159.289 Q1979.98 162.9 1974.43 162.9 Q1968.85 162.9 1965.68 159.289 Q1962.53 155.655 1962.53 149.289 Q1962.53 142.9 1965.68 139.289 Q1968.85 135.678 1974.43 135.678 Z" fill="#000000" fill-rule="nonzero" fill-opacity="1" /><path clip-path="url(#clip010)" d="M2009.91 137.067 L2009.91 141.094 Q2008.11 140.169 2006.16 139.706 Q2004.22 139.243 2002.13 139.243 Q1998.96 139.243 1997.37 140.215 Q1995.79 141.187 1995.79 143.131 Q1995.79 144.613 1996.93 145.469 Q1998.06 146.303 2001.49 147.067 L2002.94 147.391 Q2007.48 148.363 2009.38 150.145 Q2011.3 151.905 2011.3 155.076 Q2011.3 158.687 2008.43 160.793 Q2005.58 162.9 2000.58 162.9 Q1998.5 162.9 1996.23 162.483 Q1993.99 162.09 1991.49 161.28 L1991.49 156.881 Q1993.85 158.108 1996.14 158.733 Q1998.43 159.335 2000.68 159.335 Q2003.69 159.335 2005.31 158.317 Q2006.93 157.275 2006.93 155.4 Q2006.93 153.664 2005.75 152.738 Q2004.59 151.812 2000.63 150.956 L1999.15 150.608 Q1995.19 149.775 1993.43 148.062 Q1991.67 146.326 1991.67 143.317 Q1991.67 139.659 1994.26 137.669 Q1996.86 135.678 2001.63 135.678 Q2003.99 135.678 2006.07 136.025 Q2008.15 136.372 2009.91 137.067 Z" fill="#000000" fill-rule="nonzero" fill-opacity="1" /><path clip-path="url(#clip010)" d="M2022.3 128.942 L2022.3 136.303 L2031.07 136.303 L2031.07 139.613 L2022.3 139.613 L2022.3 153.687 Q2022.3 156.858 2023.15 157.761 Q2024.03 158.664 2026.69 158.664 L2031.07 158.664 L2031.07 162.229 L2026.69 162.229 Q2021.76 162.229 2019.89 160.4 Q2018.01 158.548 2018.01 153.687 L2018.01 139.613 L2014.89 139.613 L2014.89 136.303 L2018.01 136.303 L2018.01 128.942 L2022.3 128.942 Z" fill="#000000" fill-rule="nonzero" fill-opacity="1" /><path clip-path="url(#clip010)" d="M2058.85 148.201 L2058.85 150.284 L2039.26 150.284 Q2039.54 154.682 2041.9 156.997 Q2044.29 159.289 2048.52 159.289 Q2050.98 159.289 2053.27 158.687 Q2055.58 158.085 2057.85 156.881 L2057.85 160.909 Q2055.56 161.881 2053.15 162.391 Q2050.75 162.9 2048.27 162.9 Q2042.06 162.9 2038.43 159.289 Q2034.82 155.678 2034.82 149.52 Q2034.82 143.155 2038.25 139.428 Q2041.69 135.678 2047.53 135.678 Q2052.76 135.678 2055.79 139.057 Q2058.85 142.414 2058.85 148.201 M2054.59 146.951 Q2054.54 143.456 2052.62 141.372 Q2050.72 139.289 2047.57 139.289 Q2044.01 139.289 2041.86 141.303 Q2039.73 143.317 2039.4 146.974 L2054.59 146.951 Z" fill="#000000" fill-rule="nonzero" fill-opacity="1" /><path clip-path="url(#clip010)" d="M2080.86 140.284 Q2080.14 139.868 2079.29 139.682 Q2078.45 139.474 2077.43 139.474 Q2073.82 139.474 2071.88 141.835 Q2069.96 144.173 2069.96 148.571 L2069.96 162.229 L2065.68 162.229 L2065.68 136.303 L2069.96 136.303 L2069.96 140.331 Q2071.3 137.969 2073.45 136.835 Q2075.61 135.678 2078.68 135.678 Q2079.12 135.678 2079.66 135.747 Q2080.19 135.794 2080.84 135.909 L2080.86 140.284 Z" fill="#000000" fill-rule="nonzero" fill-opacity="1" /><path clip-path="url(#clip010)" d="M2085.33 136.303 L2089.59 136.303 L2089.59 162.229 L2085.33 162.229 L2085.33 136.303 M2085.33 126.21 L2089.59 126.21 L2089.59 131.604 L2085.33 131.604 L2085.33 126.21 Z" fill="#000000" fill-rule="nonzero" fill-opacity="1" /><path clip-path="url(#clip010)" d="M2108.55 139.289 Q2105.12 139.289 2103.13 141.974 Q2101.14 144.636 2101.14 149.289 Q2101.14 153.942 2103.11 156.627 Q2105.1 159.289 2108.55 159.289 Q2111.95 159.289 2113.94 156.604 Q2115.93 153.918 2115.93 149.289 Q2115.93 144.682 2113.94 141.997 Q2111.95 139.289 2108.55 139.289 M2108.55 135.678 Q2114.1 135.678 2117.27 139.289 Q2120.44 142.9 2120.44 149.289 Q2120.44 155.655 2117.27 159.289 Q2114.1 162.9 2108.55 162.9 Q2102.97 162.9 2099.8 159.289 Q2096.65 155.655 2096.65 149.289 Q2096.65 142.9 2099.8 139.289 Q2102.97 135.678 2108.55 135.678 Z" fill="#000000" fill-rule="nonzero" fill-opacity="1" /><path clip-path="url(#clip010)" d="M2142.53 140.284 Q2141.81 139.868 2140.95 139.682 Q2140.12 139.474 2139.1 139.474 Q2135.49 139.474 2133.55 141.835 Q2131.62 144.173 2131.62 148.571 L2131.62 162.229 L2127.34 162.229 L2127.34 136.303 L2131.62 136.303 L2131.62 140.331 Q2132.97 137.969 2135.12 136.835 Q2137.27 135.678 2140.35 135.678 Q2140.79 135.678 2141.32 135.747 Q2141.86 135.794 2142.5 135.909 L2142.53 140.284 Z" fill="#000000" fill-rule="nonzero" fill-opacity="1" /><path clip-path="url(#clip010)" d="M2172.11 139.289 Q2168.68 139.289 2166.69 141.974 Q2164.7 144.636 2164.7 149.289 Q2164.7 153.942 2166.67 156.627 Q2168.66 159.289 2172.11 159.289 Q2175.51 159.289 2177.5 156.604 Q2179.49 153.918 2179.49 149.289 Q2179.49 144.682 2177.5 141.997 Q2175.51 139.289 2172.11 139.289 M2172.11 135.678 Q2177.67 135.678 2180.84 139.289 Q2184.01 142.9 2184.01 149.289 Q2184.01 155.655 2180.84 159.289 Q2177.67 162.9 2172.11 162.9 Q2166.53 162.9 2163.36 159.289 Q2160.21 155.655 2160.21 149.289 Q2160.21 142.9 2163.36 139.289 Q2166.53 135.678 2172.11 135.678 Z" fill="#000000" fill-rule="nonzero" fill-opacity="1" /><path clip-path="url(#clip010)" d="M2204.19 126.21 L2204.19 129.752 L2200.12 129.752 Q2197.83 129.752 2196.92 130.678 Q2196.05 131.604 2196.05 134.011 L2196.05 136.303 L2203.06 136.303 L2203.06 139.613 L2196.05 139.613 L2196.05 162.229 L2191.76 162.229 L2191.76 139.613 L2187.69 139.613 L2187.69 136.303 L2191.76 136.303 L2191.76 134.497 Q2191.76 130.169 2193.78 128.201 Q2195.79 126.21 2200.17 126.21 L2204.19 126.21 Z" fill="#000000" fill-rule="nonzero" fill-opacity="1" /><path clip-path="url(#clip010)" d="M2241.44 149.289 Q2241.44 144.59 2239.49 141.928 Q2237.57 139.243 2234.19 139.243 Q2230.81 139.243 2228.87 141.928 Q2226.95 144.59 2226.95 149.289 Q2226.95 153.988 2228.87 156.673 Q2230.81 159.335 2234.19 159.335 Q2237.57 159.335 2239.49 156.673 Q2241.44 153.988 2241.44 149.289 M2226.95 140.238 Q2228.29 137.923 2230.33 136.812 Q2232.39 135.678 2235.23 135.678 Q2239.96 135.678 2242.9 139.428 Q2245.86 143.178 2245.86 149.289 Q2245.86 155.4 2242.9 159.15 Q2239.96 162.9 2235.23 162.9 Q2232.39 162.9 2230.33 161.789 Q2228.29 160.655 2226.95 158.34 L2226.95 162.229 L2222.67 162.229 L2222.67 126.21 L2226.95 126.21 L2226.95 140.238 Z" fill="#000000" fill-rule="nonzero" fill-opacity="1" /><polyline clip-path="url(#clip010)" style="stroke:#ff0000; stroke-linecap:round; stroke-linejoin:round; stroke-width:8; stroke-opacity:1; fill:none" points="1759.86,196.789 1909.23,196.789 "/>
<path clip-path="url(#clip010)" d="M1946.46 194.925 Q1943.32 194.925 1941.46 197.078 Q1939.63 199.231 1939.63 202.981 Q1939.63 206.708 1941.46 208.883 Q1943.32 211.036 1946.46 211.036 Q1949.61 211.036 1951.44 208.883 Q1953.29 206.708 1953.29 202.981 Q1953.29 199.231 1951.44 197.078 Q1949.61 194.925 1946.46 194.925 M1955.75 180.273 L1955.75 184.532 Q1953.99 183.698 1952.18 183.259 Q1950.4 182.819 1948.64 182.819 Q1944.01 182.819 1941.56 185.944 Q1939.13 189.069 1938.78 195.388 Q1940.14 193.374 1942.2 192.309 Q1944.26 191.222 1946.74 191.222 Q1951.95 191.222 1954.96 194.393 Q1957.99 197.541 1957.99 202.981 Q1957.99 208.305 1954.84 211.522 Q1951.69 214.74 1946.46 214.74 Q1940.47 214.74 1937.3 210.157 Q1934.13 205.55 1934.13 196.823 Q1934.13 188.629 1938.01 183.768 Q1941.9 178.884 1948.45 178.884 Q1950.21 178.884 1952 179.231 Q1953.8 179.578 1955.75 180.273 Z" fill="#000000" fill-rule="nonzero" fill-opacity="1" /><path clip-path="url(#clip010)" d="M1976.05 197.657 Q1972.71 197.657 1970.79 199.439 Q1968.89 201.221 1968.89 204.346 Q1968.89 207.471 1970.79 209.254 Q1972.71 211.036 1976.05 211.036 Q1979.38 211.036 1981.3 209.254 Q1983.22 207.448 1983.22 204.346 Q1983.22 201.221 1981.3 199.439 Q1979.4 197.657 1976.05 197.657 M1971.37 195.666 Q1968.36 194.925 1966.67 192.865 Q1965 190.805 1965 187.842 Q1965 183.698 1967.94 181.291 Q1970.91 178.884 1976.05 178.884 Q1981.21 178.884 1984.15 181.291 Q1987.09 183.698 1987.09 187.842 Q1987.09 190.805 1985.4 192.865 Q1983.73 194.925 1980.75 195.666 Q1984.13 196.453 1986 198.745 Q1987.9 201.036 1987.9 204.346 Q1987.9 209.37 1984.82 212.055 Q1981.76 214.74 1976.05 214.74 Q1970.33 214.74 1967.25 212.055 Q1964.19 209.37 1964.19 204.346 Q1964.19 201.036 1966.09 198.745 Q1967.99 196.453 1971.37 195.666 M1969.66 188.282 Q1969.66 190.967 1971.32 192.472 Q1973.01 193.976 1976.05 193.976 Q1979.06 193.976 1980.75 192.472 Q1982.46 190.967 1982.46 188.282 Q1982.46 185.597 1980.75 184.092 Q1979.06 182.587 1976.05 182.587 Q1973.01 182.587 1971.32 184.092 Q1969.66 185.597 1969.66 188.282 Z" fill="#000000" fill-rule="nonzero" fill-opacity="1" /><path clip-path="url(#clip010)" d="M2040.68 198.86 Q2038.66 198.86 2037.5 200.573 Q2036.37 202.286 2036.37 205.342 Q2036.37 208.351 2037.5 210.087 Q2038.66 211.8 2040.68 211.8 Q2042.64 211.8 2043.78 210.087 Q2044.94 208.351 2044.94 205.342 Q2044.94 202.309 2043.78 200.596 Q2042.64 198.86 2040.68 198.86 M2040.68 195.921 Q2044.33 195.921 2046.49 198.467 Q2048.64 201.013 2048.64 205.342 Q2048.64 209.67 2046.46 212.217 Q2044.31 214.74 2040.68 214.74 Q2036.97 214.74 2034.82 212.217 Q2032.67 209.67 2032.67 205.342 Q2032.67 200.99 2034.82 198.467 Q2037 195.921 2040.68 195.921 M2016.79 181.823 Q2014.8 181.823 2013.64 183.56 Q2012.5 185.272 2012.5 188.282 Q2012.5 191.337 2013.64 193.05 Q2014.77 194.763 2016.79 194.763 Q2018.8 194.763 2019.94 193.05 Q2021.09 191.337 2021.09 188.282 Q2021.09 185.296 2019.94 183.56 Q2018.78 181.823 2016.79 181.823 M2037.69 178.884 L2041.39 178.884 L2019.77 214.74 L2016.07 214.74 L2037.69 178.884 M2016.79 178.884 Q2020.44 178.884 2022.62 181.43 Q2024.8 183.953 2024.8 188.282 Q2024.8 192.657 2022.62 195.18 Q2020.47 197.703 2016.79 197.703 Q2013.11 197.703 2010.95 195.18 Q2008.82 192.634 2008.82 188.282 Q2008.82 183.976 2010.98 181.43 Q2013.13 178.884 2016.79 178.884 Z" fill="#000000" fill-rule="nonzero" fill-opacity="1" /><path clip-path="url(#clip010)" d="M2089.45 189.138 L2089.45 193.12 Q2087.64 192.124 2085.81 191.638 Q2084.01 191.129 2082.16 191.129 Q2078.01 191.129 2075.72 193.768 Q2073.43 196.384 2073.43 201.129 Q2073.43 205.874 2075.72 208.513 Q2078.01 211.129 2082.16 211.129 Q2084.01 211.129 2085.81 210.643 Q2087.64 210.133 2089.45 209.138 L2089.45 213.073 Q2087.67 213.907 2085.74 214.323 Q2083.85 214.74 2081.69 214.74 Q2075.84 214.74 2072.39 211.059 Q2068.94 207.379 2068.94 201.129 Q2068.94 194.786 2072.41 191.152 Q2075.91 187.518 2081.97 187.518 Q2083.94 187.518 2085.81 187.935 Q2087.69 188.328 2089.45 189.138 Z" fill="#000000" fill-rule="nonzero" fill-opacity="1" /><path clip-path="url(#clip010)" d="M2111.88 192.124 Q2111.16 191.708 2110.31 191.522 Q2109.47 191.314 2108.45 191.314 Q2104.84 191.314 2102.9 193.675 Q2100.98 196.013 2100.98 200.411 L2100.98 214.069 L2096.69 214.069 L2096.69 188.143 L2100.98 188.143 L2100.98 192.171 Q2102.32 189.809 2104.47 188.675 Q2106.62 187.518 2109.7 187.518 Q2110.14 187.518 2110.68 187.587 Q2111.21 187.634 2111.86 187.749 L2111.88 192.124 Z" fill="#000000" fill-rule="nonzero" fill-opacity="1" /><path clip-path="url(#clip010)" d="M2137.48 200.041 L2137.48 202.124 L2117.9 202.124 Q2118.18 206.522 2120.54 208.837 Q2122.92 211.129 2127.16 211.129 Q2129.61 211.129 2131.9 210.527 Q2134.22 209.925 2136.49 208.721 L2136.49 212.749 Q2134.19 213.721 2131.79 214.231 Q2129.38 214.74 2126.9 214.74 Q2120.7 214.74 2117.06 211.129 Q2113.45 207.518 2113.45 201.36 Q2113.45 194.995 2116.88 191.268 Q2120.33 187.518 2126.16 187.518 Q2131.39 187.518 2134.43 190.897 Q2137.48 194.254 2137.48 200.041 M2133.22 198.791 Q2133.18 195.296 2131.25 193.212 Q2129.36 191.129 2126.21 191.129 Q2122.64 191.129 2120.49 193.143 Q2118.36 195.157 2118.04 198.814 L2133.22 198.791 Z" fill="#000000" fill-rule="nonzero" fill-opacity="1" /><path clip-path="url(#clip010)" d="M2161.53 192.078 L2161.53 178.05 L2165.79 178.05 L2165.79 214.069 L2161.53 214.069 L2161.53 210.18 Q2160.19 212.495 2158.13 213.629 Q2156.09 214.74 2153.22 214.74 Q2148.52 214.74 2145.56 210.99 Q2142.62 207.24 2142.62 201.129 Q2142.62 195.018 2145.56 191.268 Q2148.52 187.518 2153.22 187.518 Q2156.09 187.518 2158.13 188.652 Q2160.19 189.763 2161.53 192.078 M2147.02 201.129 Q2147.02 205.828 2148.94 208.513 Q2150.88 211.175 2154.26 211.175 Q2157.64 211.175 2159.59 208.513 Q2161.53 205.828 2161.53 201.129 Q2161.53 196.43 2159.59 193.768 Q2157.64 191.083 2154.26 191.083 Q2150.88 191.083 2148.94 193.768 Q2147.02 196.43 2147.02 201.129 Z" fill="#000000" fill-rule="nonzero" fill-opacity="1" /><path clip-path="url(#clip010)" d="M2174.56 188.143 L2178.82 188.143 L2178.82 214.069 L2174.56 214.069 L2174.56 188.143 M2174.56 178.05 L2178.82 178.05 L2178.82 183.444 L2174.56 183.444 L2174.56 178.05 Z" fill="#000000" fill-rule="nonzero" fill-opacity="1" /><path clip-path="url(#clip010)" d="M2206.35 201.129 Q2206.35 196.43 2204.4 193.768 Q2202.48 191.083 2199.1 191.083 Q2195.72 191.083 2193.78 193.768 Q2191.86 196.43 2191.86 201.129 Q2191.86 205.828 2193.78 208.513 Q2195.72 211.175 2199.1 211.175 Q2202.48 211.175 2204.4 208.513 Q2206.35 205.828 2206.35 201.129 M2191.86 192.078 Q2193.2 189.763 2195.24 188.652 Q2197.3 187.518 2200.14 187.518 Q2204.86 187.518 2207.8 191.268 Q2210.77 195.018 2210.77 201.129 Q2210.77 207.24 2207.8 210.99 Q2204.86 214.74 2200.14 214.74 Q2197.3 214.74 2195.24 213.629 Q2193.2 212.495 2191.86 210.18 L2191.86 214.069 L2187.57 214.069 L2187.57 178.05 L2191.86 178.05 L2191.86 192.078 Z" fill="#000000" fill-rule="nonzero" fill-opacity="1" /><path clip-path="url(#clip010)" d="M2217.83 178.05 L2222.09 178.05 L2222.09 214.069 L2217.83 214.069 L2217.83 178.05 Z" fill="#000000" fill-rule="nonzero" fill-opacity="1" /><path clip-path="url(#clip010)" d="M2253.17 200.041 L2253.17 202.124 L2233.59 202.124 Q2233.87 206.522 2236.23 208.837 Q2238.61 211.129 2242.85 211.129 Q2245.3 211.129 2247.6 210.527 Q2249.91 209.925 2252.18 208.721 L2252.18 212.749 Q2249.89 213.721 2247.48 214.231 Q2245.07 214.74 2242.6 214.74 Q2236.39 214.74 2232.76 211.129 Q2229.15 207.518 2229.15 201.36 Q2229.15 194.995 2232.57 191.268 Q2236.02 187.518 2241.86 187.518 Q2247.09 187.518 2250.12 190.897 Q2253.17 194.254 2253.17 200.041 M2248.92 198.791 Q2248.87 195.296 2246.95 193.212 Q2245.05 191.129 2241.9 191.129 Q2238.34 191.129 2236.18 193.143 Q2234.05 195.157 2233.73 198.814 L2248.92 198.791 Z" fill="#000000" fill-rule="nonzero" fill-opacity="1" /></svg>
